<?xml version="1.0" standalone="no"?>
<!DOCTYPE svg PUBLIC "-//W3C//DTD SVG 1.1//EN" "http://www.w3.org/Graphics/SVG/1.1/DTD/svg11.dtd" >
<svg xmlns="http://www.w3.org/2000/svg">
<metadata>Generated by IcoMoon</metadata>
<defs>
<font id="icons-nikon" horiz-adv-x="1024">
<font-face units-per-em="1024" ascent="960" descent="-64" />
<missing-glyph horiz-adv-x="1024" />
<glyph unicode="&#x20;" horiz-adv-x="512" d="" />
<glyph unicode="&#xe900;" glyph-name="as" horiz-adv-x="1062" d="M501.515 759.743h-88.42l-210.392-568.967v-2.446h83.178l49.278 148.183h236.254l49.278-148.183h85.625l-204.8 571.413zM550.793 401.169h-192.218l98.556 280.639 93.663-280.639zM1062.444 346.648c0-46.831-15.727-85.625-46.831-114.283-31.104-31.104-80.382-46.831-137.698-46.831-49.278 0-96.109 7.689-132.456 23.416v77.936h2.446c41.589-23.416 85.625-36.347 119.525-36.347 72.694 0 109.040 44.035 109.040 88.42 0 44.035-15.727 70.247-96.109 114.283-109.040 59.762-137.698 96.109-137.698 171.599 0 44.035 18.173 80.732 52.074 106.594 31.454 23.416 75.489 36.347 122.321 36.347 38.793 0 83.178-7.689 114.283-18.173v-75.489h-2.446c-28.658 15.727-67.451 25.862-106.594 25.862-57.316 0-96.109-33.9-96.109-83.178 0-36.347 15.727-57.316 103.798-106.594 96.109-46.482 132.456-93.313 132.456-163.56zM553.24 151.634h18.173l28.658-72.694h-15.727l-5.242 15.727h-31.104l-5.242-15.727h-15.727l26.212 72.694zM563.724 136.257l-10.485-31.104h20.62l-10.135 31.104zM654.591 138.703c-5.242 2.446-10.485 2.446-15.727 2.446s-10.485-2.446-10.485-10.485c0-12.931 33.9-7.689 33.9-31.104 0-15.727-12.931-23.416-28.658-23.416-7.689 0-10.485 0-18.173 2.446l2.446 12.931c5.242-2.446 10.485-5.242 15.727-5.242s12.931 2.446 12.931 10.485c0 12.931-33.9 7.689-33.9 33.9 0 15.727 12.931 23.416 25.862 23.416 5.242 0 12.931 0 18.173-2.446l-2.097-12.931zM675.56 151.634h18.173c15.727 0 31.104-5.242 31.104-23.416s-12.931-23.416-28.658-23.416h-5.242v-28.658h-15.727v75.489zM688.491 118.083h5.242c7.689 0 12.931 2.446 12.931 10.485 0 7.689-5.242 10.485-12.931 10.485h-5.242v-20.969zM740.216 151.634h12.931v-28.658h28.658v28.658h15.727v-72.694h-15.727v31.104h-28.658v-31.104h-15.727v72.694h2.796zM818.152 151.634h44.035v-10.485h-31.104v-18.173h25.862v-10.485h-25.862v-20.62h28.658v-10.485h-44.035v70.247h2.446zM877.914 151.634h15.727c15.727 0 33.9 0 33.9-20.62 0-7.689-5.242-15.727-15.727-18.173 5.242 0 5.242-5.242 7.689-7.689l12.931-28.658h-15.727l-10.485 25.862c-2.446 5.242-5.242 7.689-10.485 7.689h-5.242v-31.104h-15.727v72.694h3.145zM890.845 120.53h5.242c7.689 0 15.727 0 15.727 10.485 0 7.689-7.689 10.485-15.727 10.485h-5.242v-20.969zM945.715 151.634h15.727v-72.694h-15.727v72.694zM1031.339 78.941c-5.242 0-10.485-2.446-18.173-2.446-23.416 0-41.589 12.931-41.589 36.347 0 25.862 15.727 39.143 41.589 39.143 5.242 0 10.485 0 15.727-2.446v-12.931c-5.242 2.446-10.485 2.446-15.727 2.446-15.727 0-25.862-10.485-25.862-25.862 0-15.727 10.485-25.862 25.862-25.862 5.242 0 12.931 0 15.727 2.446l2.446-10.834zM979.266 811.817v96.109h-927.192v-920.202h927.192v57.316h52.074v-109.040h-1031.339v1024h1031.339v-148.183h-52.074z" />
<glyph unicode="&#xe901;" glyph-name="das" horiz-adv-x="1048" d="M52.074 858.648v49.278h926.493v-137.698h52.074v189.772h-1030.64v-101.352h52.074zM978.217 133.461v-142.941l-923.697-2.446-2.446 49.278h-52.074v-101.352h1033.087v197.461h-54.87zM385.136 718.154c-62.558 57.316-156.221 85.974-280.988 85.974h-104.147v-717.149h122.321c122.321 0 210.741 39.143 268.057 106.594s85.974 158.668 85.974 262.466c-0.349 114.283-28.658 202.354-91.216 262.116zM392.825 445.554c0-174.045-88.42-285.881-249.884-285.881h-62.209v571.762h49.278c124.767 0 187.326-44.035 223.672-101.352 33.9-57.316 39.143-130.010 39.143-184.53zM554.288 245.297h15.727l28.658-72.694h-15.727l-5.242 15.727h-31.104l-5.242-15.727h-15.727l28.658 72.694zM561.977 232.366l-10.485-31.104h20.969l-10.485 31.104zM653.193 232.366c-5.242 2.446-10.485 2.446-15.727 2.446s-10.485-2.446-10.485-10.485c0-12.931 31.104-7.689 31.104-31.104 0-15.727-12.931-23.416-28.658-23.416-7.689 0-10.485 0-18.173 2.446l2.446 12.931c5.242-2.446 10.485-5.242 15.727-5.242s12.931 2.446 12.931 10.485c0 12.931-31.104 7.689-31.104 31.104 0 15.727 12.931 23.416 25.862 23.416 5.242 0 12.931 0 18.173-2.446l-2.097-10.135zM673.813 245.297h18.173c15.727 0 31.104-5.242 31.104-23.416s-12.931-23.416-28.658-23.416h-5.242v-28.658h-15.727v75.489zM689.54 211.397h5.242c7.689 0 12.931 2.446 12.931 10.485 0 7.689-5.242 10.485-12.931 10.485h-5.242v-20.969zM738.818 247.743h15.727v-31.104h28.658v31.104h15.727v-75.489h-15.727v33.9h-28.658v-33.9h-15.727v75.489zM817.103 247.743h44.385v-12.931h-28.658v-18.173h25.862v-10.485h-25.862v-20.62h28.658v-12.931h-44.385v75.14zM876.866 247.743h15.727c15.727 0 33.9 0 33.9-20.62 0-7.689-5.242-15.727-15.727-18.173 5.242 0 5.242-5.242 7.689-7.689l12.931-28.658h-15.727l-7.689 23.416c-2.446 5.242-5.242 7.689-10.485 7.689h-5.242v-31.104h-15.727v75.14zM892.592 214.192h5.242c7.689 0 15.727 0 15.727 10.485 0 7.689-7.689 10.485-15.727 10.485h-5.242v-20.969zM960.044 247.743h-15.727v-72.694h15.727v72.694zM1030.291 175.050c-5.242 0-10.485-2.446-15.727-2.446-23.416 0-41.589 12.931-41.589 36.347 0 25.862 15.727 39.143 41.589 39.143 5.242 0 10.485 0 15.727-2.446v-12.931c-5.242 2.446-10.485 5.242-15.727 5.242-15.727 0-25.862-10.485-25.862-25.862 0-15.727 10.485-25.862 25.862-25.862 5.242 0 12.931 0 15.727 2.446v-13.63zM533.319 344.202h20.969c23.416 0 41.589-7.689 41.589-36.347s-20.969-36.347-41.589-36.347h-20.969v72.694zM549.046 281.644h7.689c12.931 0 23.416 10.485 23.416 25.862 0 15.727-12.931 25.862-23.416 25.862h-7.689v-51.724zM663.678 344.202c23.416 0 36.347-15.727 36.347-39.143s-12.931-39.143-36.347-39.143c-23.416 0-36.347 15.727-36.347 39.143s12.931 39.143 36.347 39.143zM663.678 279.197c15.727 0 20.969 12.931 20.969 25.862s-5.242 25.862-20.969 25.862c-15.727 0-20.969-12.931-20.969-25.862 0-10.485 5.242-25.862 20.969-25.862zM731.129 344.202h15.727v-41.589c0-12.931 5.242-20.62 15.727-20.62s15.727 7.689 15.727 20.62v41.589h15.727v-46.831c0-20.62-10.485-28.658-31.104-28.658-18.173 0-31.104 7.689-31.104 28.658v46.831zM830.034 344.202h25.862c10.485 0 23.416-2.446 23.416-18.173 0-7.689-5.242-15.727-15.727-15.727 10.485 0 18.173-7.689 18.173-15.727 0-18.173-15.727-20.62-25.862-20.62h-25.862v70.247zM845.761 312.748h5.242c5.242 0 12.931 2.446 12.931 7.689 0 7.689-7.689 10.485-15.727 10.485h-5.242v-18.173h2.796zM845.761 281.644h7.689c7.689 0 15.727 2.446 15.727 10.485 0 10.485-7.689 10.485-15.727 10.485h-7.689v-20.969zM913.212 344.202h15.727v-62.209h28.658v-10.485h-44.385v72.694zM988.702 344.202h41.589v-12.931h-28.658v-18.173h25.862v-10.485h-25.862v-20.62h28.658v-10.485h-41.589v72.694zM700.025 723.397h-52.074l-124.767-337.955h49.278l28.658 88.42h138.048l28.658-88.42h52.074l-119.874 337.955zM728.683 513.005h-111.836l57.316 161.114 54.52-161.114zM973.324 578.010c-52.074 28.658-62.558 41.589-62.558 62.209 0 28.658 20.969 49.278 57.316 49.278 23.416 0 44.385-5.242 62.558-15.727h2.446v44.385c-18.173 5.242-44.385 7.689-70.247 7.689-57.316 0-104.147-28.658-104.147-85.625 0-44.035 15.727-65.005 83.178-101.352 49.278-28.658 57.316-41.589 57.316-67.451s-23.416-52.074-65.005-52.074c-20.969 0-49.278 10.485-70.247 20.62h-2.446v-46.831c20.969-7.689 46.831-15.727 77.936-15.727 70.247 0 109.39 41.589 109.39 96.109-0.349 44.734-18.523 75.839-75.489 104.497z" />
<glyph unicode="&#xe902;" glyph-name="comparison" horiz-adv-x="1167" d="M583.442-64c-3.572 0-7.144 1.191-10.716 2.381l-559.628 282.195c-8.335 3.572-13.098 11.907-13.098 21.433s4.763 16.67 13.098 21.433l163.126 82.158-163.126 80.967c-8.335 4.763-13.098 11.907-13.098 21.433s4.763 16.67 13.098 21.433l163.126 82.158-163.126 82.158c-8.335 3.572-13.098 11.907-13.098 21.433s4.763 16.67 13.098 21.433l559.628 282.195c7.144 3.572 14.288 3.572 21.433 0l559.628-282.195c8.335-3.572 13.098-11.907 13.098-21.433s-4.763-16.67-13.098-21.433l-163.126-82.158 163.126-82.158c8.335-3.572 13.098-11.907 13.098-21.433s-4.763-16.67-13.098-21.433l-163.126-82.158 163.126-82.158c8.335-3.572 13.098-11.907 13.098-21.433s-4.763-16.67-13.098-21.433l-559.628-282.195c-3.572 0-7.144-1.191-10.716-1.191zM77.395 242.009l506.047-256 506.047 254.809-152.409 76.205-342.921-171.46c0 0-1.191 0-1.191-1.191v0c0 0 0 0 0 0v0c0 0 0 0 0 0v0c0 0 0 0 0 0s0 0 0 0 0 0 0 0 0 0 0 0 0 0 0 0 0 0 0 0 0 0 0 0 0 0 0 0 0 0 0 0 0 0 0 0 0 0 0 0 0 0 0 0 0 0 0 0 0 0 0 0 0 0 0 0 0 0 0 0 0 0 0 0v0c0 0 0 0 0 0s0 0 0 0 0 0 0 0v0c0 0 0 0 0 0v0c-5.953-2.381-11.907-2.381-16.67 0v0c0 0 0 0 0 0v0c0 0 0 0 0 0s0 0 0 0 0 0 0 0v0c0 0 0 0 0 0s0 0 0 0 0 0 0 0 0 0 0 0 0 0 0 0 0 0 0 0 0 0 0 0 0 0 0 0 0 0 0 0 0 0 0 0 0 0 0 0 0 0 0 0 0 0 0 0 0 0 0 0 0 0 0 0 0 0 0 0 0 0 0 0v0c0 0 0 0 0 0v0c0 0 0 0 0 0v0c0 0-1.191 0-1.191 1.191v0l-346.493 172.651-151.219-76.205zM236.949 367.033c1.191 0 1.191-1.191 2.381-1.191l344.112-172.651 344.112 172.651c1.191 0 1.191 1.191 2.381 1.191l159.553 80.967-152.409 76.205-342.921-171.46c-7.144-3.572-14.288-3.572-21.433 0l-344.112 171.46-151.219-76.205 159.553-80.967zM77.395 653.991l506.047-253.619 506.047 254.809-506.047 254.809-506.047-256z" />
<glyph unicode="&#xe903;" glyph-name="digital-life" horiz-adv-x="1028" d="M68.15 636.724h-68.15v-361.72h45.084c58.714 0 90.168 13.281 111.487 47.53 14.329 23.066 19.921 63.607 19.921 144.339v1.398c0 53.821-4.893 92.614-13.98 111.836-17.824 39.143-46.831 56.617-94.362 56.617zM51.724 323.233v265.611h12.232c44.035 0 60.461-24.464 62.558-93.313v-71.296c-2.097-77.586-18.523-99.954-74.79-101.002zM52.423 706.272v201.655h919.503v-201.655h52.074v253.728h-1024v-253.728h52.423zM971.926 202.31v-213.887h-919.503v214.236h-52.423v-266.659h1024v266.31h-52.074zM250.233 530.479h-48.928v-255.476h48.928v255.476zM252.68 636.724h-53.821v-51.724h53.821v51.724zM397.018 517.898c-12.931 15.727-30.405 17.474-43.686 17.474-29.008 0-77.586-16.426-77.586-125.117 0-65.354 6.291-135.252 80.382-135.252 20.27 0 32.502 9.786 40.89 21.668v-37.745c0-11.533-2.796-38.094-27.959-38.094-19.222 0-28.658 10.135-29.008 31.454v4.194h-54.52l0.349-4.893c3.145-44.385 30.405-69.898 74.79-69.898 56.268 0 84.926 27.26 84.926 80.732v268.057h-48.928l0.349-12.582zM397.717 403.965c0-47.53-2.446-87.023-32.153-87.023-25.513 0-39.143 14.678-39.143 93.313v5.242c0 22.717-0.349 54.171 14.678 68.849 5.941 5.941 13.63 8.737 23.765 8.737 30.755 0.349 32.852-40.191 32.852-89.119zM520.737 530.479h-48.928v-255.476h48.928v255.476zM523.184 636.724h-53.821v-51.724h53.821v51.724zM602.867 636.724h-49.627v-361.72h120.573v47.88h-70.946v313.84zM747.555 636.724h-53.821v-51.724h53.821v51.724zM745.458 530.479h-48.928v-255.476h48.928v255.476zM876.866 530.479h-35.298v37.745c0 10.135 2.097 17.125 6.291 21.668 6.64 7.339 19.222 10.135 38.793 9.087l4.893-0.349v37.046l-3.495 0.699c-5.941 0.699-10.834 1.398-19.921 1.398-50.676 0-75.14-20.969-75.14-63.956v-43.337h-29.706v-39.143h29.706v-216.333h48.928v216.333h35.298l-0.349 39.143zM984.158 358.531l-0.349-4.194c-1.747-28.309-6.291-42.638-27.959-42.638-24.814 0-34.599 6.291-34.949 73.742h107.293v25.163c0 76.887-12.232 124.418-73.742 124.418-79.334 0-79.334-66.053-79.334-136.3 0-107.642 29.706-128.961 81.431-128.961 46.831 0 71.645 29.008 71.645 83.877v4.543l-44.035 0.349zM950.608 498.326c19.921 0 31.803-5.242 32.502-73.742h-62.209c0.699 66.403 10.135 73.742 29.706 73.742z" />
<glyph unicode="&#xe904;" glyph-name="elife-series" horiz-adv-x="1070" d="M1066.433 960h-1023.299v-97.49h51.901v45.589h919.496v-199.54h51.901v251.441zM1066.433 94.51h-51.901v-105.205h-919.496v105.205h-51.901v-158.51h1024.701v158.51h-1.403zM496.219 641.578h-41.030v-245.479h140.274v36.471h-99.244v209.008zM691.551 641.578h-41.030v-245.479h41.030v245.479zM881.973 641.578h-134.312v-245.479h41.381v108.362h88.373v36.471h-88.373v62.422h92.932v38.225zM1069.589 641.578h-140.274v-245.479h140.274v36.471h-99.244v71.54h90.126v36.471h-90.126v62.422h99.244v38.575zM340.515 824.285h-220.932c0 0-33.666-1.403-45.589-53.304l-71.89-292.471c-10.521-45.589 19.989-83.814 65.578-83.814h256.351l4.559 18.236h-193.929c-18.236 0-30.51 15.079-27.353 33.666l79.255 322.981c4.559 18.236 24.548 35.068 44.186 35.068h47.342c18.236 0 30.51-15.079 25.951-33.666l-35.068-153.951h-79.255l-5.962-19.638h192.175l33.666 141.677c8.767 47.342-21.742 85.216-69.085 85.216zM95.036 327.715c-30.51 0-55.058-16.833-55.058-48.745 0-56.46 73.293-44.186 73.293-85.216 0-21.392-19.989-29.107-33.666-29.107-12.274 0-27.353 4.559-35.068 9.118l-3.156-24.548c10.521-4.559 22.795-7.715 35.068-7.715 33.666 0 62.422 15.079 62.422 53.304 0 59.266-73.293 51.901-73.293 85.216 0 18.236 16.833 24.548 30.51 24.548 12.274 0 19.989-3.156 31.912-7.715l3.156 22.795c-11.573 6.312-25.249 8.066-36.121 8.066zM334.553 324.559h-96.088v-179.901h96.088v22.795h-71.54v59.616h64.175v22.795h-64.175v51.901h71.54v22.795zM476.23 324.559h-41.030v-179.901h24.548v79.255h15.079c12.274 0 21.392 0 29.107-16.833l25.951-62.422h27.353l-31.912 71.54c-5.962 10.521-9.118 15.079-16.833 18.236 19.989 3.156 35.068 18.236 35.068 41.030 0 43.134-32.263 49.096-67.332 49.096zM459.748 248.46v54.707h22.795c22.795 0 33.666-10.521 33.666-25.951 0-16.833-13.677-27.353-36.471-27.353h-19.989v-1.403zM672.964 324.559h-24.548v-179.901h24.548v179.901zM877.414 324.559h-96.088v-179.901h96.088v22.795h-71.54v59.616h63.825v22.795h-64.175v51.901h71.54v22.795zM1024 327.715c-30.51 0-55.058-16.833-55.058-48.745 0-56.46 73.293-44.186 73.293-85.216 0-21.392-19.989-29.107-33.666-29.107-12.274 0-27.353 4.559-35.068 9.118l-3.156-24.548c10.521-4.559 22.795-7.715 35.068-7.715 33.666 0 62.422 15.079 62.422 53.304 0 59.266-73.293 51.901-73.293 85.216 0 18.236 16.833 24.548 30.51 24.548 12.274 0 19.989-3.156 31.912-7.715l3.156 22.795c-11.923 6.312-25.6 8.066-36.121 8.066z" />
<glyph unicode="&#xe905;" glyph-name="home-office-neo" horiz-adv-x="1021" d="M52.074 828.942v78.984h593.081l23.066 52.074h-668.221v-131.058h52.074zM761.185 828.942l34.599 78.635h172.997v-730.78h52.423v783.203h-259.67l-56.967-131.058h56.617zM397.717 124.374l-58.015-133.155h-287.629l-0.699 449.092h-51.375v-501.515h373.952l80.732 185.229h-56.967zM505.010 123.326h45.433l70.247-137.698h0.699v137.698h35.298v-184.18h-45.084l-70.247 137.698h-0.699v-137.698h-35.298v184.18zM700.025 123.326h109.040v-29.008h-71.995v-45.433h65.704v-29.008h-65.704v-51.724h72.344v-29.008h-109.39v184.18zM930.687 126.471c57.666 0 90.168-39.143 90.168-94.711s-31.803-95.76-90.168-95.76c-59.063 0-90.168 39.492-90.168 95.76 0 56.617 31.454 94.711 90.168 94.711zM930.687-34.992c37.745 0 51.724 33.551 51.724 66.752 0 32.502-15.028 65.704-51.724 65.704s-51.724-33.201-51.724-65.704c0-33.201 13.98-66.752 51.724-66.752zM40.191 622.744h103.448v-105.895h40.191v242.195h-40.191v-100.653h-103.448v100.653h-40.191v-242.195h40.191v105.895zM358.575 599.678c0 11.533-2.097 33.9-14.678 52.074-12.931 18.872-33.551 28.658-61.16 28.658-27.26 0-48.229-9.087-62.209-27.26-10.834-13.98-16.426-33.9-16.426-55.569 0-49.627 29.008-80.382 76.188-80.382 47.53-0.349 78.285 32.153 78.285 82.479zM280.988 545.158c-37.395 0-40.191 41.24-40.191 53.821 0 50.326 34.949 53.122 41.939 53.122 24.464 0 38.793-18.872 38.793-52.074 0-40.191-20.969-54.87-40.541-54.87zM611.255 624.491c0 51.724-44.035 55.918-57.666 55.918-28.309 0-42.288-13.98-48.928-23.765-5.941 9.786-18.523 23.765-48.229 23.765-12.232 0-29.008-2.097-42.638-17.125v13.63h-35.648l0.699-23.416v-131.058h35.648v87.023c0 9.786 0.349 20.27 5.941 27.61 3.145 4.194 12.582 14.678 29.008 14.678 17.824 0 28.309-10.485 28.309-28.309v-101.002h35.648v85.974c0 5.941 0 21.319 5.941 29.357 3.844 5.242 12.582 13.98 27.959 13.98s22.367-8.038 24.814-11.184c2.097-3.145 4.194-8.038 4.194-19.921v-97.857h35.648l-0.699 101.701zM769.223 575.563h-35.298l-0.349-3.495c-2.446-23.416-20.27-26.911-30.755-26.911-11.184 0-19.921 3.145-26.212 9.786-7.339 7.689-11.533 19.921-11.883 35.298h105.545v3.844c0.349 16.775 1.048 48.229-18.523 68.5-11.184 11.533-27.959 17.474-48.928 17.474-17.474 0-31.454-3.844-42.288-11.533-26.911-18.872-30.755-47.181-30.755-71.995 0-51.025 25.513-78.984 71.995-78.984 29.008 0 45.084 11.184 53.472 20.62 11.184 11.883 12.582 24.464 13.63 32.153l0.349 5.242zM702.122 652.8c10.135 0 17.824-2.796 23.066-8.038 5.941-5.941 9.087-15.028 9.087-27.26h-68.15c2.097 25.862 19.571 35.298 35.997 35.298zM213.537 446.952c-23.066 0-55.918-5.941-81.081-32.852-20.62-22.018-31.104-55.219-31.104-96.109 0-80.732 38.793-124.767 109.739-124.767 39.492 0 69.548 13.63 88.42 40.541 15.377 21.668 23.765 52.074 23.765 88.071 0 39.842-10.135 71.296-29.357 92.964-18.872 20.969-46.482 32.153-80.382 32.153zM261.068 248.442c-11.184-13.281-27.61-20.27-48.928-20.27-21.668 0-38.444 6.64-48.928 19.921-13.281 16.426-19.921 40.541-19.921 71.645 0 60.811 23.765 91.915 70.946 91.915 45.084 0 67.102-29.357 67.102-89.469 0-18.173-2.446-52.074-20.27-73.742zM418.337 395.227c4.543 0 9.786-0.349 15.727-0.699l4.194-0.349v29.357l-3.145 0.349c-5.941 0.699-15.028 2.097-23.066 2.097-23.416 0-34.599-9.786-39.842-17.824-5.941-8.737-6.99-17.474-6.99-37.046v-12.931h-29.008v-27.61h29.008v-126.864h34.949v126.864h34.25v27.61h-34.25v19.222c0 10.135 0 17.824 18.173 17.824zM533.319 395.227c4.543 0 9.786-0.349 15.727-0.699l4.194-0.349v29.357l-3.495 0.349c-5.941 0.699-14.678 2.097-23.066 2.097-23.416 0-34.599-9.786-39.842-17.824-5.941-8.737-6.99-17.474-6.99-37.046v-12.931h-29.008v-27.61h29.008v-126.864h34.949v126.864h34.25v27.61h-34.25v19.222c0 10.135 0 17.824 18.523 17.824zM607.41 422.138h-40.89v-37.745h40.89v37.745zM604.964 358.182h-35.298v-154.474h35.298v154.474zM694.083 334.416c15.377 0 23.765-8.737 25.163-27.26l0.349-3.495h35.648l-0.349 4.194c-0.699 8.388-1.398 21.319-13.281 34.949-14.678 17.474-38.444 19.571-47.88 19.571-10.485 0-30.405-2.446-46.831-17.824-15.727-14.678-23.416-36.696-23.416-65.354 0-33.201 10.485-49.278 18.523-58.714 16.775-18.173 41.24-20.27 51.025-20.27 41.24 0 61.51 28.309 63.257 56.268l0.349 4.194h-35.648l-0.349-3.495c-0.349-6.64-3.145-27.959-27.959-27.959-22.018 0-32.502 17.824-32.502 54.171 0 33.551 11.184 51.025 33.9 51.025zM887.35 344.552c-11.184 11.533-27.959 17.474-48.928 17.474-17.474 0-31.454-3.844-42.288-11.533-26.911-18.872-30.755-47.181-30.755-71.995 0-51.025 25.513-78.984 71.995-78.984 29.008 0 45.084 11.184 53.472 20.62 11.184 11.883 12.582 24.464 13.63 32.153l0.699 4.893h-35.298l-0.349-3.495c-2.446-23.416-20.27-26.911-30.755-26.911-11.184 0-19.921 3.145-26.212 9.786-7.339 7.689-11.533 19.921-11.883 35.298h105.545v3.844c0.349 17.474 1.048 48.928-18.872 68.849zM837.723 334.766c10.135 0 17.824-2.796 23.066-8.038 5.941-5.941 9.087-15.028 9.087-27.26h-68.15c2.446 25.862 19.921 35.298 35.997 35.298zM803.124 385.092c18.173 0 31.104 4.543 41.589 15.028l10.485-12.582h34.599l-28.309 32.153c8.038 12.931 13.98 26.911 15.727 48.928l0.349 3.495h-26.212l-0.349-3.145c-0.699-13.98-2.446-22.367-6.291-29.706l-23.765 26.911c12.582 6.291 29.706 18.523 29.706 38.793 0 21.668-15.377 35.997-39.143 35.997-25.163 0-41.24-14.329-41.24-37.046 0-12.931 5.941-22.717 12.931-31.803-20.62-9.436-30.405-23.765-30.405-43.686 0.699-26.212 19.921-43.337 50.326-43.337zM810.812 519.296c9.786 0 13.98-4.543 13.98-14.678 0-10.485-11.883-18.173-17.824-21.319-5.592 6.291-10.485 12.931-10.485 20.62 0.349 11.533 7.689 15.377 14.329 15.377zM798.231 454.64l31.104-36.696c-4.893-5.242-12.232-10.834-22.367-10.834-12.232 0-25.163 8.038-25.163 23.066 0 11.533 6.64 17.474 16.426 24.464z" />
<glyph unicode="&#xe906;" glyph-name="presio-advance" horiz-adv-x="1029" d="M0 682.856h44.385c34.599 0 63.257-11.883 63.257-50.326 0-37.745-29.357-50.676-59.762-50.676h-23.765v-67.451h-24.115v168.453zM24.115 602.823h24.115c15.028 0 33.551 7.689 33.551 29.706 0 21.319-22.018 29.008-37.046 29.008h-20.62v-58.714zM189.423 682.856h41.589c33.201 0 65.354-5.242 65.354-45.783 0-20.62-15.377-34.949-34.949-38.444v-0.349c7.689-3.145 11.184-6.291 16.426-17.125l32.153-67.102h-27.61l-25.862 58.365c-7.689 16.426-15.377 16.426-28.309 16.426h-14.329v-74.79h-24.464v168.803zM213.537 610.512h20.62c23.066 0 36.347 10.135 36.347 26.561 0 15.377-11.533 24.814-33.9 24.814h-23.066v-51.375zM394.572 682.856h94.362v-21.319h-70.247v-49.278h63.956v-21.319h-63.956v-55.569h70.597v-21.319h-94.362v168.803zM659.833 657.693c-12.582 4.893-19.222 6.99-31.803 6.99-13.63 0-29.357-4.893-29.357-22.717 0-32.502 72.694-24.814 72.694-80.382 0-35.997-27.959-50.326-61.51-50.326-11.883 0-23.416 3.145-34.599 6.99l2.446 22.717c8.038-3.495 22.717-8.038 34.949-8.038 13.63 0 33.201 7.689 33.201 27.61 0 37.745-72.694 27.26-72.694 79.683 0 30.056 23.765 46.132 54.171 46.132 11.184 0 24.464-2.097 35.997-5.941l-3.495-22.717zM783.203 682.856h-24.115v-168.803h24.115v168.803zM947.113 685.652c51.375 0 81.431-37.046 81.431-87.023 0-51.375-29.706-87.023-81.431-87.023s-81.081 35.997-81.081 87.023c0 49.977 30.056 87.023 81.081 87.023zM947.113 532.576c39.143 0 55.569 32.502 55.569 66.053 0 34.25-18.173 66.053-55.569 66.053-37.046 0.349-55.569-31.454-55.569-66.053 0-33.551 16.775-66.053 55.569-66.053zM104.497 275.702h-53.821l-11.883-51.375h-38.793l56.967 229.614h44.385l54.87-229.614h-41.24l-10.485 51.375zM78.984 409.906h-0.349l-20.62-95.41h38.793l-17.824 95.41zM0 960v-225.070h52.074v172.997h919.503v-172.647h52.423v224.721h-1024zM971.926-11.926h-919.853v178.938h-52.074v-231.012h1024.349v231.361h-52.074v-179.287zM174.045 453.941h61.16c38.793 0 76.538-30.405 76.538-116.729 0-79.334-38.793-112.885-81.78-112.885h-55.918v229.614zM214.586 264.519h12.582c29.357 0 42.288 30.755 42.288 72.694 0 47.53-13.63 76.538-44.734 76.538h-10.135v-149.231zM316.636 453.941h43.337l30.405-167.405h0.349l30.755 167.405h41.24l-51.724-229.963h-43.337l-51.025 229.963zM551.842 275.702h-53.821l-11.883-51.375h-38.793l56.967 229.614h44.385l54.87-229.614h-41.24l-10.485 51.375zM526.329 409.906h-0.349l-20.27-95.41h38.793l-18.173 95.41zM620.691 453.941h47.181l49.977-159.367h0.349v159.367h35.298v-229.963h-47.53l-49.278 166.356h-0.699v-166.356h-35.298v229.963zM896.087 401.868c-6.291 4.893-16.426 12.931-34.949 12.931-26.911 0-44.385-29.357-44.385-75.489 0-44.734 19.222-74.79 44.734-74.79 19.921 0 31.104 9.786 35.298 12.232l1.398-48.229c-6.99-3.145-21.319-8.038-42.987-8.038-47.181 0-80.033 47.181-80.033 119.525 0 84.227 42.288 117.777 77.237 117.777 25.513 0 38.444-7.689 45.084-11.184l-1.398-44.734zM922.299 453.941h98.905v-40.191h-60.112v-51.375h56.967v-40.191h-56.967v-57.666h63.257v-40.191h-102.051v229.614z" />
<glyph unicode="&#xe907;" glyph-name="presio-master" horiz-adv-x="1025" d="M0 771.276h44.035c34.25 0 63.257-11.883 63.257-50.676 0-37.395-29.357-50.676-59.413-50.676h-23.765v-67.451h-24.115v168.803zM24.115 691.244h23.765c14.678 0 33.9 7.689 33.9 29.706 0 21.319-22.018 29.008-37.046 29.008h-20.62v-58.714zM188.724 771.276h41.24c33.201 0 65.354-5.242 65.354-45.783 0-20.62-15.377-34.949-34.599-38.444v-0.349c7.689-2.796 10.834-6.291 16.426-17.125l31.803-67.102h-27.61l-25.862 58.365c-7.689 16.426-15.377 16.426-28.309 16.426h-14.678v-75.14h-23.765v169.152zM212.838 698.583h20.27c23.066 0 36.347 10.135 36.347 26.561 0 15.377-11.533 24.814-33.9 24.814h-23.066v-51.375zM393.174 771.276h94.012v-21.319h-69.898v-49.278h63.956v-21.319h-63.956v-55.569h69.898v-21.319h-94.012v168.803zM657.038 746.113c-12.232 4.893-19.222 6.99-31.454 6.99-13.63 0-29.357-4.893-29.357-22.717 0-32.502 72.344-24.814 72.344-80.732 0-35.997-27.61-50.326-61.51-50.326-11.883 0-23.416 3.495-34.25 6.99l2.446 22.717c8.038-3.495 22.717-8.038 34.949-8.038 13.63 0 33.201 7.689 33.201 27.61 0 37.745-72.344 27.26-72.344 79.683 0 29.706 23.765 46.132 53.821 46.132 11.184 0 24.115-2.097 35.997-5.941l-3.844-22.367zM780.057 771.276h-24.115v-168.803h24.115v168.803zM943.618 774.072c51.025 0 81.081-37.046 81.081-87.372 0-51.375-29.706-87.372-81.081-87.372s-81.081 35.997-81.081 87.372c0.349 50.326 30.056 87.372 81.081 87.372zM943.618 620.997c38.793 0 55.569 32.502 55.569 66.053 0 34.25-18.173 66.053-55.569 66.053-37.046 0.349-55.569-31.454-55.569-66.053 0-33.551 16.775-66.053 55.569-66.053zM176.142 495.88h-0.699l-55.569-222.973h-28.658l-53.122 222.973h-0.699v-222.973h-36.696v267.708h60.461l45.433-199.558h0.699l46.831 199.558h58.714v-267.708h-36.696v222.973zM0 960v-140.494h52.074v88.42h919.503v-88.071h52.423v140.145h-1024zM971.926-11.926h-919.853v236.953h-52.074v-289.027h1024.349v288.677h-52.074v-236.603zM365.215 337.562h-75.839l-16.076-64.306h-40.541l74.091 267.358h44.385l71.296-267.358h-41.939l-15.377 64.306zM356.827 374.957l-27.959 124.767h-0.699l-30.405-124.767h59.063zM442.452 324.631c8.038-6.291 25.513-16.426 47.181-16.426 17.824 0 33.551 11.883 33.551 38.793 0 19.222-9.087 27.61-28.658 40.541l-20.62 13.63c-22.018 14.678-35.997 35.648-35.997 69.898 0 47.88 32.502 72.694 69.898 72.694 23.416 0 39.842-7.339 46.482-9.786l-2.097-40.89c-9.786 4.543-22.717 11.533-41.589 11.533-20.27 0-30.755-13.281-30.755-31.454 0-19.921 11.184-27.61 23.416-35.997l23.765-16.076c25.862-17.474 38.444-34.25 38.444-71.995 0-54.52-32.153-80.382-74.441-80.382-22.018 0-39.492 3.844-50.676 11.883l2.097 44.035zM628.030 501.472h-49.278v39.143h139.096v-39.143h-49.278v-228.565h-40.541v228.565zM738.468 540.614h116.38v-39.143h-75.489v-71.296h71.645v-39.143h-71.645v-78.984h78.984v-39.143h-119.525v267.708zM879.312 540.614h69.199c39.492 0 66.053-21.319 66.053-70.597 0-34.949-18.173-58.365-42.638-62.908v-1.048c8.038-1.398 17.474-6.291 24.464-31.104l28.658-101.701h-43.337l-22.018 87.023c-5.242 20.969-16.076 27.959-30.755 27.959h-9.087v-114.982h-40.541v267.358zM936.628 423.885c21.319 0 35.997 13.281 35.997 40.541 0 30.755-13.281 38.094-35.997 38.094h-16.426v-78.984h16.426z" />
<glyph unicode="&#xe908;" glyph-name="presio-power" horiz-adv-x="1027" d="M0.699 475.959h69.548c49.977 0 75.839-29.706 75.839-78.285 0-48.928-26.212-78.984-75.839-78.984h-25.163v-101.002h-44.385v258.272zM61.859 355.386c27.959 0 40.191 14.329 40.191 42.638 0 27.959-12.232 42.288-40.191 42.288h-16.775v-84.926h16.775zM273.3 479.803c50.326 0 96.808-39.842 96.808-132.456s-46.132-132.456-96.808-132.456c-50.326 0-96.808 39.842-96.808 132.456 0.349 92.614 46.482 132.456 96.808 132.456zM273.3 250.539c27.959 0 50.676 25.513 50.676 96.459s-22.717 96.459-50.676 96.459c-27.959 0-50.676-25.513-50.676-96.459-0.349-70.946 22.367-96.459 50.676-96.459zM525.281 429.477h-0.699l-38.444-211.44h-52.423l-48.928 257.922h41.939l33.9-198.859h0.699l36.696 198.859h54.171l35.997-198.859h0.699l35.648 198.859h40.191l-49.977-257.922h-53.122l-36.347 211.44zM696.18 475.959h127.563v-37.745h-82.829v-68.849h78.285v-37.745h-78.285v-76.188h86.324v-37.745h-131.058v258.272zM864.633 475.959h75.839c42.987 0 72.344-20.62 72.344-67.801 0-33.551-19.921-56.268-47.181-60.461v-1.048c9.087-1.398 19.222-5.941 26.911-30.056l31.454-98.556h-47.181l-23.765 83.877c-5.941 20.27-17.474 26.911-33.9 26.911h-10.135v-110.788h-44.385v257.922zM927.192 363.773c23.765 0 39.492 12.931 39.492 39.143 0 29.706-14.678 37.046-39.492 37.046h-18.173v-76.188h18.173zM0 703.825h44.035c34.599 0 63.257-12.232 63.257-50.676 0-37.395-29.008-50.676-59.762-50.676h-23.416v-67.451h-24.115v168.803zM24.115 623.792h24.115c15.028 0 33.9 7.339 33.9 29.706 0 20.969-22.367 29.008-37.046 29.008h-20.969v-58.714zM189.073 703.825h41.24c33.201 0 65.354-5.242 65.354-45.783 0-20.62-15.377-34.949-34.949-38.444v-0.349c7.339-2.796 11.184-6.64 16.426-17.125l31.803-67.451h-27.61l-25.862 58.714c-7.339 16.426-15.377 16.426-28.309 16.426h-13.98v-74.79h-24.115v168.803zM213.188 631.481h20.62c22.717 0 36.696 10.135 36.696 26.212 0 15.377-11.533 24.814-33.9 24.814h-23.416v-51.025zM394.223 703.825h94.362v-21.319h-70.247v-49.278h63.956v-21.319h-63.956v-55.569h70.247v-21.319h-94.362v168.803zM659.134 678.313c-12.582 4.893-19.222 6.99-31.454 6.99-13.63 0-29.357-4.893-29.357-22.367 0-32.502 72.344-24.814 72.344-80.732 0-35.997-27.959-50.326-61.51-50.326-11.883 0-23.416 3.495-34.599 6.99l2.446 22.367c8.388-3.495 22.717-8.388 34.949-8.388 13.63 0 33.201 7.689 33.201 27.61 0 37.745-72.344 27.61-72.344 79.683 0 30.056 23.765 45.783 54.171 45.783 11.184 0 24.464-2.097 35.997-5.941l-3.844-21.668zM782.154 703.825h-24.115v-168.803h24.115v168.803zM946.414 706.621c51.025 0 81.081-37.395 81.081-87.372 0-51.025-29.706-87.372-81.081-87.372s-81.081 35.997-81.081 87.372c-0.349 50.326 29.706 87.372 81.081 87.372zM946.414 553.545c38.793 0 55.569 32.502 55.569 66.053 0 34.25-18.173 66.053-55.569 66.053-37.046 0.349-55.569-31.454-55.569-66.053 0-33.9 16.775-66.053 55.569-66.053zM0 960v-204.101h52.074v151.678h918.804v-151.678h52.074v204.101h-1022.952zM971.227-11.577h-919.154v172.647h-52.074v-225.070h1023.301v225.070h-52.074v-172.647z" />
<glyph unicode="&#xe909;" glyph-name="relaxsee-neo" horiz-adv-x="1188" d="M880.556 642.399h67.359c-74.339 95.629-177.996 192.654-321.44 265.249h428.237v-264.9h52.352v317.252h-827.157c288.633-41.532 477.448-172.063 600.649-317.601zM1107.414 359.351h-60.030c50.258-129.134 60.030-226.858 60.030-226.858v226.858zM134.020 737.68c-42.928 129.832-50.607 222.32-50.607 222.32v-222.32h50.607zM336.098 359.351h-65.963c100.166-135.067 248.147-274.672 464.883-370.999h-599.253v370.999h-52.352v-423.351h1024c-380.772 57.238-620.543 233.14-771.316 423.351zM97.025 548.166v1.396c26.176 4.886 45.022 30.364 45.022 68.406 0 53.399-27.921 76.783-69.453 76.783h-72.594v-290.727h42.928v124.946h9.423c15.706 0 26.525-7.678 32.458-30.364l23.035-94.582h45.372l-30.364 110.986c-7.329 26.525-17.102 31.411-25.827 33.156zM60.030 567.711h-17.451v85.857h17.451c24.082 0 38.042-8.376 38.042-41.532 0-29.666-15.357-44.324-38.042-44.324zM241.865 605.055c-63.869 0-69.104-50.607-69.104-106.798 0-83.763 27.572-100.864 69.104-100.864 40.485 0 63.171 23.384 63.52 65.265v2.443h-35.599l-0.349-2.094c-0.698-16.055-8.725-34.901-28.27-34.901-20.941 0-32.807 10.121-33.156 60.728h98.77v18.847c0 61.426-10.47 97.374-64.916 97.374zM239.073 576.436c18.498 0 32.458-4.537 32.807-59.332h-63.869c0.698 52.003 15.357 59.332 31.062 59.332zM345.521 684.979v-283.746h33.156v283.746h-33.156zM539.572 450.094v94.233c0 41.183-19.196 61.077-59.332 61.077-41.532 0-60.379-18.847-61.775-61.077v-2.443h35.599l-0.349 2.443c-0.698 10.47 1.396 19.196 6.631 25.129 4.537 4.886 10.819 7.329 18.498 7.329 8.376 0 14.658-2.094 18.847-6.631 9.074-9.074 8.725-26.874 8.376-42.928-3.141 0-5.933 0.349-9.074 0.349-35.599 0-83.065-6.631-83.065-63.171 0-20.941 3.49-36.646 10.47-47.466 8.027-12.564 21.639-19.196 40.136-19.196v0c20.243 0 33.505 8.027 42.928 25.478v-21.639h35.948l-0.349 2.443c-2.443 16.404-3.49 32.109-3.49 46.070zM503.275 498.258h3.49c1.047-30.364-3.49-51.654-13.96-62.473-5.235-5.584-11.866-8.376-20.243-8.376-18.847 0-25.478 17.451-25.478 33.854 0 36.646 29.666 36.646 56.191 36.995zM718.266 601.216h-39.787l-33.854-67.359-32.109 67.359h-41.532l51.305-95.629-55.842-104.354h38.74l36.646 77.132 39.438-77.132h42.928l-59.681 104.354 53.748 95.629zM809.009 521.99c-18.149 9.074-33.854 17.102-33.854 30.713 0 7.678 2.443 13.611 6.98 17.8s10.819 6.282 17.8 6.282c8.027 0 14.309-2.094 18.149-6.282 4.886-4.886 6.98-12.564 6.98-22.686v-2.443h35.948v2.094c1.047 17.102-3.141 30.713-12.564 40.834-10.47 10.819-26.176 16.753-45.372 16.753-22.686 0-39.438-6.631-50.607-19.894-10.819-12.913-12.215-27.921-12.215-35.948 0-34.552 28.27-49.211 53.399-62.473 18.498-9.772 34.203-17.8 34.203-31.76 0-17.102-10.47-27.572-28.27-27.572-23.733 0-27.223 18.847-27.223 35.25v2.094h-35.948v-2.094c-0.349-21.639 4.886-38.391 15.357-49.56 10.47-10.819 26.525-16.404 47.117-16.404 41.183 0 63.52 21.988 63.52 61.775 0.698 35.948-29.317 51.305-53.399 63.52zM959.433 605.055c-63.869 0-69.104-50.607-69.104-106.798 0-83.763 27.572-100.864 69.104-100.864 40.485 0 63.171 23.384 63.52 65.265v2.094h-35.599l-0.349-2.094c-0.698-16.055-8.725-34.901-28.27-34.901-20.592 0-32.807 10.121-33.156 61.077h98.77v18.847c0 61.426-10.819 97.374-64.916 97.374zM956.641 576.436c18.498 0 32.458-4.537 32.807-59.332h-64.218c0.698 52.352 15.706 59.332 31.411 59.332zM1188.035 507.681c0 61.775-10.47 97.374-64.916 97.374-63.869 0-69.104-50.607-69.104-106.798 0-83.763 27.572-100.864 69.104-100.864 40.485 0 63.171 23.384 63.52 65.265v2.094h-35.599v-2.094c-0.698-16.055-8.725-34.901-28.27-34.901-20.941 0-32.807 10.121-33.156 61.077h98.77v18.847zM1153.134 517.104h-64.218c0.698 52.352 15.357 59.332 31.062 59.332 18.498 0 32.807-4.188 33.156-59.332zM613.213 338.41h33.505l51.305-120.758h0.349v120.758h25.478v-153.914h-33.854l-50.956 120.060h-0.349v-120.060h-25.478v153.914zM758.751 338.41h80.971v-22.337h-52.701v-41.183h49.909v-22.686h-49.909v-45.372h55.144v-22.686h-83.065v154.263zM926.277 340.853c32.109 0 61.426-23.733 61.426-79.226s-29.317-79.226-61.426-79.226c-32.109 0-61.426 23.733-61.426 79.226 0.349 55.144 29.666 79.226 61.426 79.226zM926.277 203.692c17.8 0 32.109 15.357 32.109 57.587s-14.309 57.587-32.109 57.587c-17.8 0-32.109-15.357-32.109-57.587s14.309-57.587 32.109-57.587z" />
<glyph unicode="&#xe90a;" glyph-name="seecoat-blue-uv" horiz-adv-x="845" d="M170.318 794.569c-17.451 11.517-40.485 18.498-63.171 18.498-35.25 0-58.285-25.827-58.285-60.379 0-26.176 9.423-42.23 62.822-76.085 57.587-35.948 76.434-71.547 76.434-117.966 0-64.567-36.646-114.825-107.845-114.825-29.666 0-57.936 6.98-77.481 17.451v53.050c21.29-13.96 48.862-26.176 70.849-26.176 41.881 0 65.963 30.713 65.963 63.869 0 31.411-7.329 49.56-57.587 82.367-67.010 43.975-82.018 69.104-82.018 121.456 0 66.661 46.768 101.562 103.307 101.562 24.431 0 50.607-5.933 67.010-13.262v-49.56zM336.098 853.202h172.761v-44.324h-125.993v-129.134h120.060v-43.975h-120.060v-144.142h132.973v-43.975h-179.741v405.551zM664.867 853.202h172.761v-44.324h-125.644v-129.134h120.060v-43.975h-120.060v-144.142h132.624v-43.975h-179.741v405.551zM106.449 197.759c-9.772-3.141-20.243-5.235-30.015-5.235-52.352 0-74.339 43.277-74.339 92.139 0 56.54 30.015 91.79 73.292 91.79 11.866 0 23.733-2.443 31.062-6.282v-21.988c-8.725 6.282-19.545 9.074-31.062 9.074-26.874 0-51.654-23.733-51.654-67.359 0-46.419 17.102-77.481 53.050-77.481 10.819 0 20.941 3.141 29.666 8.376v-23.035zM311.318 376.453c36.646 0 60.030-34.203 60.030-90.045 0-62.124-23.035-93.884-62.124-93.884-36.646 0-60.030 34.203-60.030 90.045 0 62.473 23.035 93.884 62.124 93.884zM309.224 211.021c21.639 0 40.485 19.545 40.485 75.387 0 36.297-10.47 71.547-38.391 71.547-21.639 0-40.136-19.545-40.136-75.387-0.349-36.646 10.121-71.547 38.042-71.547zM575.869 374.708l54.097-180.439h-21.639l-13.262 46.768h-62.822l-13.262-46.768h-20.941l55.493 180.439h22.337zM589.481 260.581l-25.129 90.045h-0.349l-26.176-90.045h51.654zM784.578 355.163h-37.693v19.545h96.676v-19.545h-37.693v-160.894h-20.941v160.894zM702.56 132.843l47.466-153.565 47.117 153.565h-94.582zM552.136-35.381c28.27 0 39.787 16.055 39.787 55.493v112.731h-79.226v-112.731c0-39.438 11.517-55.493 39.438-55.493zM280.605 54.664c14.309 0 19.196 10.47 19.196 26.176v51.654h-38.391v-51.654c0-15.357 5.235-26.176 19.196-26.176zM662.075 132.843h-30.364v-128.087c0-34.901-18.149-58.983-49.211-68.406h139.954l-60.379 196.494zM60.030 83.283v-26.874h8.725c8.725 0 19.196 2.094 19.196 12.913 0 12.215-9.772 13.96-19.196 13.96h-8.725zM776.9-63.651h66.312v196.494h-5.933l-60.379-196.494zM67.359 119.929h-7.329v-23.035h7.678c8.027 0 17.451 1.745 17.451 11.517 0.349 10.819-9.423 11.517-17.8 11.517zM472.911 4.755v128.087h-58.634v-12.913h-36.297v-23.035h33.156v-14.658h-33.156v-26.176h36.297v-14.658h-54.795v91.441h-40.834v-57.587c0-24.78-13.96-35.25-37.693-35.25s-37.693 10.121-37.693 35.25v57.587h-72.943v-76.434h35.948v-14.658h-54.795v91.092h-63.869c8.725-2.792 16.404-8.725 16.404-21.988 0-10.819-7.329-18.498-18.498-20.592v-0.349c12.564-1.396 21.29-9.772 21.29-20.941 0-23.384-20.941-26.874-32.807-26.874h-32.458v90.743h-39.787v-196.494h520.376c-30.713 9.423-49.211 33.854-49.211 68.406zM843.561 960h-841.816v-42.928h841.816v42.928z" />
<glyph unicode="&#xe90b;" glyph-name="seecoat-bright" horiz-adv-x="887" d="M166.007 35.604c0 6.99-3.844 11.533-16.076 11.533h-8.388v-22.367h6.99c11.883 0 17.474 3.844 17.474 10.834zM168.453-2.84c0 9.436-6.291 13.63-18.173 13.63h-9.087v-26.212h8.737c11.883 0.349 18.523 4.194 18.523 12.582zM285.881 35.255c0 4.543-1.398 11.883-17.474 11.883h-7.689v-24.464h6.99c15.727-0.349 18.173 6.64 18.173 12.582zM2.097-64h883.855v158.668h-883.855v-158.668zM703.869 61.466h70.597v-14.329h-26.212v-76.538h-18.173v76.538h-26.212v14.329zM578.053 61.466h18.173v-36.696h36.347v36.696h18.173v-90.867h-18.173v39.842h-36.347v-39.842h-18.173v90.867zM488.235 62.864c10.485 0 18.872-1.398 26.561-3.844l-1.048-15.377c-6.99 3.495-15.727 4.893-23.416 4.893-20.27 0-32.852-13.281-32.852-32.852 0-19.222 11.883-32.502 30.755-32.502 4.543 0 8.737 0.699 11.883 1.398v23.765h-19.222v14.329h36.347v-48.928c-9.786-2.446-19.921-4.543-29.357-4.543-31.104 0-49.977 16.076-49.977 45.433 0 30.056 18.523 48.229 50.326 48.229zM363.468 61.466h18.173v-90.867h-18.173v90.867zM242.545 61.466h28.658c29.357 0 34.25-12.232 34.25-24.464 0-10.485-6.99-19.571-18.872-20.969v-0.349c3.844-0.349 7.339-3.844 10.135-10.135l14.329-34.599h-20.969l-10.485 27.26c-2.446 6.99-4.543 10.485-12.931 10.485h-5.941v-37.745h-18.173v90.517zM123.020 61.466h31.803c18.523 0 29.357-8.038 29.357-23.416 0-10.485-6.64-18.523-18.173-20.62v-0.349c12.582-1.048 20.969-9.786 20.969-20.62 0-17.824-12.931-26.212-32.502-26.212h-31.454v91.216zM885.952 960h-883.855v-45.084h883.855v45.084zM85.974 617.851c52.423-34.949 60.461-53.821 60.461-86.673 0-34.949-25.163-67.102-69.199-67.102-23.066 0-52.074 12.931-74.091 27.26v-55.569c20.62-10.834 50.326-18.173 81.431-18.173 74.79 0 113.234 53.122 113.234 120.573 0 48.928-20.27 85.974-80.382 124.068-55.918 35.298-66.053 52.423-66.053 80.033 0 35.997 24.115 63.257 60.811 63.257 24.115 0 48.229-7.339 66.403-19.571v52.074c-17.474 8.038-44.734 13.98-70.597 13.98-59.063 0-108.341-36.347-108.341-106.594 0.349-54.87 16.076-81.081 86.324-127.563zM541.357 468.62h-139.446v151.328h126.165v46.132h-126.165v135.252h132.456v46.482h-181.384v-425.676h188.724v46.482zM747.555 468.62v151.328h126.165v46.132h-126.165v135.252h132.456v46.482h-181.384v-425.676h188.724v46.482h-139.795zM78.984 326.378c12.232 0 23.066-3.145 32.502-9.436v23.416c-8.038 4.194-20.27 6.64-32.852 6.64-45.433 0-76.887-37.395-76.887-96.459 0-51.375 23.066-96.808 77.936-96.808 10.135 0 20.969 2.097 31.454 5.941v23.765c-9.087-5.941-19.921-9.087-31.104-9.087-37.745 0-55.569 32.153-55.569 81.081 0.349 46.132 26.212 70.946 54.52 70.946zM261.417 248.792c0-58.714 24.464-94.711 63.257-94.711 40.89 0 65.005 33.201 65.005 98.556 0 58.714-24.464 94.711-63.257 94.711-40.89-0.349-65.005-33.201-65.005-98.556zM366.962 252.287c0-58.365-19.222-78.984-42.288-78.984-29.357 0-40.191 37.046-40.191 75.14 0 58.365 19.222 78.984 42.288 78.984 29.357 0.349 40.191-36.696 40.191-75.14zM558.831 205.106h66.053l13.98-49.278h23.066l-56.967 189.423h-23.765l-58.015-189.423h21.668l13.98 49.278zM592.033 320.087h0.699l26.561-94.362h-54.52l27.26 94.362zM845.761 155.828v169.152h39.842v20.62h-101.352v-20.62h39.842v-169.152h21.668z" />
<glyph unicode="&#xe90c;" glyph-name="seecoat-plus-uv" horiz-adv-x="874" d="M22.717 69.155h7.339c10.135 0 19.571 3.145 19.571 13.63s-9.087 13.98-19.571 13.98h-7.339v-27.61zM2.097 111.094h25.862c22.367 0 42.638-5.941 42.638-27.26s-17.474-28.658-39.492-28.658h-8.737v-34.25h-20.27v90.168zM108.691 111.094h20.62v-75.839h39.842v-14.329h-60.461v90.168zM203.053 111.094h20.62v-52.074c0-15.377 5.592-25.513 21.319-25.513s21.319 10.135 21.319 25.513v52.074h20.62v-57.666c0-24.115-15.727-34.25-41.939-34.25s-41.939 10.135-41.939 34.25v57.666zM872.672 960h-870.575v-44.385h870.924v44.385zM176.142 789.45c-18.173 11.883-41.589 19.222-65.354 19.222-36.347 0-59.762-26.911-59.762-62.209 0-26.911 9.786-43.686 64.655-78.635 59.413-37.395 78.984-73.742 78.984-121.622 0-66.403-37.745-118.826-111.836-118.826-30.755 0-59.762 7.339-80.382 17.824v54.87c22.018-14.329 50.326-26.911 73.043-26.911 43.337 0 68.15 31.803 68.15 66.053 0 32.153-7.689 51.025-59.413 85.275-68.849 45.084-84.227 70.946-84.227 124.767 0 68.849 48.229 104.846 106.594 104.846 25.163 0 52.074-5.941 69.199-13.63v-51.025zM347.741 849.911h178.588v-45.433h-130.359v-132.805h124.418v-45.433h-124.418v-148.532h137.698v-45.433h-185.928v417.638zM688.142 849.911h178.588v-45.433h-130.359v-132.805h124.418v-45.433h-124.418v-148.532h137.349v-45.433h-185.578v417.638zM110.089 174.001c-10.135-3.495-20.969-5.592-31.104-5.592-54.171 0-76.887 44.734-76.887 95.061 0 58.015 31.104 94.711 75.489 94.711 12.232 0 24.464-2.446 32.153-6.64v-22.717c-9.436 6.291-20.27 9.436-32.153 9.436-27.959 0-53.122-24.115-53.122-69.548 0-47.88 17.474-79.683 54.87-79.683 10.834 0 21.668 3.145 30.755 8.737v-23.765zM319.782 187.282c22.367 0 41.589 20.27 41.589 77.586 0 37.745-10.834 73.742-39.492 73.742-22.367 0-41.589-20.27-41.589-77.586 0-37.395 10.485-73.742 39.492-73.742zM321.878 358.182c37.745 0 62.209-35.648 62.209-92.964 0-64.306-23.765-96.808-64.306-96.808-37.745 0-62.209 35.648-62.209 92.964 0.349 64.306 23.765 96.808 64.306 96.808zM609.857 239.006l-26.212 92.964h-0.349l-26.911-92.964h53.472zM595.877 356.085l55.918-185.928h-22.367l-13.63 48.579h-65.005l-13.63-48.579h-21.668l57.316 185.928h23.066zM811.861 335.814h-39.143v20.27h99.954v-20.27h-39.143v-123.719l-21.668-5.941v129.66zM543.803-34.992c29.008 0 41.24 16.426 41.24 56.967v65.704l-81.78-21.319v-44.385c-0.699-40.541 11.533-56.967 40.541-56.967zM844.014 155.478l-67.801-219.478h96.808v226.818l-29.008-7.339zM665.775 108.997l-39.842-10.485v-91.915c0-35.648-18.872-60.811-51.025-70.597h144.339l-53.472 172.997zM2.097-64l329.218 85.974c-1.048 0.349-1.747 0.349-2.796 0.699l2.097 16.426c6.99-3.495 15.028-5.592 23.416-5.592 8.038 0 18.173 3.495 18.173 11.533 0 17.125-45.084 10.135-45.084 39.842 0 20.27 17.824 27.61 35.997 27.61 8.737 0 17.125-1.048 24.464-3.145l-1.747-14.678c-6.291 2.446-13.63 3.844-20.969 3.844-6.99 0-16.426-2.796-16.426-12.582 0-15.727 45.084-9.087 45.084-39.492 0-3.145-0.349-6.291-1.398-8.737l69.548 18.173v-49.278c0-35.648 18.872-60.811 51.025-70.597h-510.602zM704.568 119.132l42.987-140.145 50.676 164.609-93.663-24.464z" />
<glyph unicode="&#xe90d;" glyph-name="seemax-infinite" horiz-adv-x="807" d="M2.446-64l290.075 128.961v-53.122h18.523v61.51l23.066 10.485v-71.645h16.775v78.984h0.349l33.551-79.334h22.367v102.051h-5.242l132.805 59.063h-532.27v-236.953zM390.728 33.857v0l-26.911 62.558 26.911 11.883v-74.441zM430.22 11.839h18.872v44.385h31.454v15.028h-31.454v27.61h32.852v15.028h-51.724v-102.051zM518.291 113.54h-18.523v-102.051h18.872v102.051zM597.625 33.857v0l-34.25 80.033h-22.018v-102.051h16.775v79.334h0.349l33.551-79.334h22.367v102.051h-16.775v-80.033zM656.688 113.54h-18.872v-102.051h18.872v102.051zM672.066 98.861h22.717v-87.023h18.872v87.023h22.717v15.028h-63.956v-15.028zM769.922 56.573h32.852v15.028h-32.852v27.26h34.949v15.028h-53.472v-102.051h55.219v15.028h-36.347v29.706zM806.618 960h-804.172v-41.24h804.172v41.24zM78.285 648.956c47.53-31.803 54.52-48.928 54.52-78.984 0-31.454-22.717-61.16-62.908-61.16-20.969 0-47.181 11.533-67.451 25.163v-50.676c18.872-10.135 45.783-16.426 74.091-16.426 67.801 0 103.099 48.229 103.099 109.739 0 44.385-18.173 78.285-73.043 112.535-50.676 32.153-59.762 47.53-59.762 72.694-0.349 32.502 21.319 57.316 55.219 57.316 21.668 0 43.686-6.64 60.461-17.824v47.88c-15.727 7.339-40.541 12.582-63.956 12.582-53.821 0-98.556-33.201-98.556-97.158 0-49.977 14.329-73.742 78.285-115.681zM492.429 513.005h-126.864v137.698h114.632v41.939h-114.632v123.020h120.224v42.288h-164.958v-387.233h171.599v42.288zM680.104 513.005v137.698h114.632v41.939h-114.632v123.020h120.224v42.288h-165.308v-387.233h171.948v42.288h-126.864zM20.62 377.054h0.349l42.987-148.532h14.329l44.734 148.532h0.349v-148.532h18.872v172.298h-29.706l-40.541-136.999h-0.349l-39.492 136.999h-30.755v-172.298h18.872v148.532zM360.322 228.522h19.921l12.582 45.084h60.112l12.582-45.084h20.969l-51.724 172.298h-21.668l-52.773-172.298zM423.23 378.102l24.115-85.974h-49.627l24.814 85.974h0.699zM759.438 319.039l44.385 81.78h-22.018l-31.454-63.257-33.201 63.257h-23.416l42.288-81.081-39.492-75.14-161.114-71.645h271.552v120.573l-27.26-12.232-20.27 37.745zM745.808 300.167l14.329-27.61-35.648-15.727 21.319 43.337z" />
<glyph unicode="&#xe90e;" glyph-name="seemax-ultimate" horiz-adv-x="846" d="M579.801 81.737l-17.824-61.51h34.599l-16.775 61.51zM804.522-29.75h-70.597v129.66h68.5v-18.173h-43.337v-34.25h41.24v-18.173h-41.24v-38.793h45.783v-20.27zM713.655 81.737h-29.706v-111.487h-22.717v111.487h-29.706v18.173h82.13v-18.173zM610.556-29.75l-9.087 31.803h-44.385l-9.436-31.803h-23.765l43.337 129.66h25.862l41.939-129.66h-24.464zM506.059-29.75h-22.717v109.040h0.699l-32.502-109.040h-16.775l-31.104 109.040v-109.040h-22.717v129.66h36.347l26.911-95.76h0.349l27.26 95.76h34.599v-129.66zM353.332-29.75h-24.814v129.66h25.163v-129.66zM303.356 81.737h-27.26v-111.487h-25.163v111.487h-27.26v18.173h79.683v-18.173zM223.323-29.75h-66.053v129.66h22.717v-109.040h43.337v-20.62zM134.553 15.683c0-29.008-16.426-46.482-44.385-46.482-28.309 0-44.734 17.824-44.734 46.482v83.877h22.717v-83.877c0-18.523 5.592-27.61 20.62-27.61s20.62 9.786 20.62 27.61v83.877h25.163v-83.877zM2.446-64h843.315v200.257h-843.315v-200.257zM845.761 960h-843.315v-43.337h843.315v43.337zM170.9 794.692c-18.173 11.533-40.541 18.523-63.607 18.523-34.949 0-58.365-26.212-58.365-60.461 0-26.212 9.436-42.288 62.908-76.188 57.666-35.648 76.887-70.946 76.887-117.428 0-64.306-36.696-114.982-108.341-114.982-29.706 0-57.316 6.99-77.936 17.474v52.773c20.62-13.98 49.278-26.212 70.946-26.212 42.288 0 66.053 30.755 66.053 63.956 0 31.454-7.339 49.278-57.316 82.479-67.451 44.035-82.13 68.849-82.13 121.272 0 66.752 47.181 101.701 103.798 101.701 24.464 0 49.278-5.941 67.451-13.281v-49.627zM337.256 853.057h173.346v-43.337h-127.563v-129.66h120.923v-43.337h-120.923v-145.737h134.553v-42.987h-180.336v405.057zM665.775 853.057v-405.057h179.986v42.987h-132.106v145.737h120.923v43.337h-120.923v129.66h125.117v43.337h-172.997zM118.127 375.306l-42.288-143.29h-0.699l-41.589 143.29h-31.454v-182.083h18.173v156.92h1.398l45.084-156.92h15.028l46.831 156.92h1.048v-156.92h20.62v182.083h-32.153zM452.937 261.373l-25.513 88.77h-0.699l-26.212-88.77h52.423zM439.306 375.306l53.821-182.083h-22.018l-13.281 47.88h-62.908l-13.281-47.88h-20.969l55.219 182.083h23.416zM819.549 375.306l-33.201-66.403-34.599 66.403h-24.464l44.385-85.974-50.326-96.109h23.765l37.046 75.14 39.143-75.14h24.464l-49.278 95.76 46.132 85.974h-23.066z" />
<glyph unicode="&#xe90f;" glyph-name="soltes-neo" d="M510.79 872.564c181.438 0 354.581-35.251 512.864-99.532v186.967h-1023.654v-186.276c157.937 63.59 330.044 98.84 510.79 98.84zM766.186-64h257.814v437.179l-257.814-437.179zM0 369.723v-433.723h255.395l-255.395 433.723zM6.566 485.497c10.022-6.566 31.795-17.28 59.097-17.28 22.464 0 42.163 12.441 42.163 40.435 0 20.045-11.75 28.684-36.288 42.163l-25.92 14.515c-27.648 15.206-45.619 36.979-45.619 72.921 0 49.766 41.126 75.685 87.781 75.685 29.721 0 50.111-7.603 58.406-10.022l-2.419-42.508c-12.441 4.838-28.684 12.096-52.185 12.096-25.574 0-38.707-13.478-38.707-32.832 0-20.736 13.824-28.684 29.721-37.67l30.067-16.589c32.832-18.317 48.383-35.942 48.383-74.994 0-56.678-40.435-83.98-93.311-83.98-27.993 0-49.42 4.147-63.59 12.441l2.419 45.619zM289.955 640.324c41.817 0 90.2-21.773 90.2-105.752 0-86.399-48.383-106.098-90.2-106.098s-90.546 20.045-90.546 106.098c0 83.634 48.729 105.752 90.546 105.752zM289.955 463.725c31.795 0 39.052 36.633 39.052 70.847s-7.258 70.502-39.052 70.502c-31.795 0-39.398-36.288-39.398-70.502s7.603-70.847 39.398-70.847zM476.576 730.87h-49.42v-299.286h49.42v299.286zM555.027 679.376l49.42 15.206v-57.369h41.126v-36.288h-41.126v-106.789c0-21.773 7.949-28.339 22.464-28.339 8.64 0 15.206 2.419 18.662 4.147v-35.251c-7.603-3.802-18.317-6.912-33.177-6.912-36.633 0-57.369 16.589-57.369 59.788v113.010h-32.832v36.288h32.832v42.508zM838.761 441.606c-10.368-4.147-31.795-13.133-61.516-13.133-66.354 0-95.039 47.347-95.039 102.988 0 61.516 32.486 108.863 84.671 108.863 44.236 0 82.252-25.92 82.252-109.899v-9.677h-118.885c0-35.251 13.824-56.332 52.185-56.332 30.412 0 44.582 9.331 53.913 15.897l2.419-38.707zM801.436 551.852c0 36.288-12.096 54.604-34.214 54.604-25.92 0-36.633-27.302-36.633-54.604h70.847zM892.674 479.276c7.949-3.11 28.339-13.478 51.494-13.478 17.971 0 31.795 4.147 31.795 20.39 0 7.949-4.147 15.552-21.773 25.92l-20.39 12.096c-20.736 12.441-43.545 25.574-43.545 58.060 0 28.339 27.302 58.406 70.847 58.406 26.265 0 46.655-6.912 51.494-8.294l-2.765-38.361c-12.441 4.838-25.574 9.331-43.545 9.331-20.045 0-28.339-7.603-28.339-20.045 0-11.059 8.64-17.28 23.155-26.265l24.192-15.552c25.574-16.243 38.361-27.993 38.361-51.839 0-38.016-31.795-60.825-76.722-60.825-25.574 0-46.655 5.875-57.023 10.022l2.765 40.435zM304.815 132.99h36.979l57.369-113.010h0.346v113.010h29.030v-151.025h-36.979l-57.714 113.010h-0.346v-113.010h-29.030v151.025zM464.481 132.99h89.164v-23.846h-58.751v-36.979h53.913v-23.846h-53.913v-42.508h59.097v-23.846h-89.509v151.025zM653.176 135.409c47.347 0 73.957-31.795 73.957-77.759 0-45.619-26.265-78.45-73.957-78.45-48.383 0-73.957 32.14-73.957 78.45 0.346 46.655 26.265 77.759 73.957 77.759zM653.176 3.046c30.758 0 42.508 27.302 42.508 54.604 0 26.611-12.096 53.913-42.508 53.913-30.067 0-42.508-27.302-42.508-53.913 0.346-26.956 11.75-54.604 42.508-54.604zM392.251 333.435h30.412l-49.42-160.011h-33.868l-30.758 123.032-30.758-123.032h-34.905l-48.383 160.356h31.795l33.868-120.958 30.412 120.958h36.979l30.758-121.304 33.868 120.958zM462.407 333.435h29.030v-160.356h-29.030v160.356zM599.263 333.435h-48.729v-160.356h48.729c53.913 0 85.017 29.721 85.017 81.561 0 46.655-34.905 78.796-85.017 78.796zM653.867 253.602c0-36.288-17.971-53.913-54.604-53.913h-19.353v107.135h21.773c31.104 0 52.185-21.427 52.185-53.222zM757.891 306.824v-37.324h57.714v-26.611h-58.060v-42.854h63.59v-26.956h-92.965v160.356h92.965v-26.611h-63.244z" />
<glyph unicode="&#xe910;" glyph-name="edit" horiz-adv-x="1149" d="M865.176 333.061c10.449 10.449 27.167 2.090 27.167-10.449v-290.482c0-52.245-43.886-96.131-96.131-96.131h-700.082c-52.245 0-96.131 45.976-96.131 98.22v700.082c0 52.245 43.886 96.131 96.131 96.131h545.437c14.629 0 20.898-16.718 10.449-27.167l-64.784-64.784c-2.090-2.090-6.269-4.18-10.449-4.18h-480.653v-702.171h702.171v227.788c0 4.18 2.090 8.359 4.18 10.449l62.694 62.694zM591.412 149.159l-179.722-20.898c-52.245-6.269-96.131 37.616-91.951 91.951l20.898 179.722 522.449 524.539c45.976 45.976 119.118 45.976 165.094 0l85.682-85.682c45.976-45.976 45.976-119.118 0-165.094l-522.449-524.539zM802.482 728.033l-371.984-371.984-14.629-127.478 129.567 14.629 369.894 369.894-112.849 114.939zM961.306 857.6c-8.359 8.359-20.898 8.359-29.257 0l-60.604-60.604 114.939-114.939 60.604 60.604c8.359 8.359 8.359 20.898 0 29.257l-85.682 85.682z" />
<glyph unicode="&#xe911;" glyph-name="glasses" horiz-adv-x="3150" d="M3141.355 833.53c-4.080 57.116-48.956 65.275-97.912 73.434-53.036 8.159-183.586 36.717-518.12 53.036-334.534 12.239-514.040-32.637-664.988-48.956-155.028-16.319-391.649-12.239-289.657-12.239 106.072 0-138.709-4.080-289.657 12.239-155.028 16.319-334.534 61.195-664.988 48.956-334.534-16.319-465.084-44.876-514.040-53.036-53.036-8.159-97.912-16.319-101.992-73.434 0-28.558 0-89.753 0-110.151s8.159-44.876 28.558-65.275c24.478-20.398 36.717-12.239 69.355-142.789 32.637-134.629 40.797-212.143 61.195-281.498s81.594-175.426 179.506-228.462c97.912-53.036 261.1-69.355 334.534-69.355s334.534 4.080 436.526 73.434c101.992 73.434 150.948 114.231 216.223 273.339 65.275 163.187 77.514 175.426 89.753 216.223 12.239 44.876 12.239 114.231 159.108 114.231 150.948 0 146.869-73.434 159.108-114.231 12.239-44.876 24.478-57.116 89.753-216.223 65.275-163.187 110.151-203.984 216.223-273.339 101.992-73.434 363.092-73.434 436.526-73.434s236.622 16.319 334.534 69.355c97.912 53.036 159.108 159.108 179.506 228.462s28.558 146.869 61.195 281.498c32.637 134.629 48.956 126.47 69.355 142.789 24.478 20.398 28.558 44.876 28.558 65.275-8.159 20.398-4.080 77.514-8.159 110.151zM1342.215 539.793c-16.319-89.753-61.195-195.825-110.151-310.056s-191.745-191.745-277.418-216.223c-85.673-28.558-322.295-48.956-501.801-4.080-179.506 48.956-257.020 232.542-265.179 314.135s-16.319 126.47-12.239 289.657c4.080 163.187 53.036 208.064 155.028 248.861s305.976 36.717 412.048 36.717c142.789 0 236.622 0 444.685-61.195s171.347-208.064 155.028-297.817zM2957.769 323.57c-8.159-81.594-85.673-265.179-265.179-314.135s-420.207-24.478-501.801 4.080c-85.673 28.558-224.382 106.072-277.418 216.223-48.956 110.151-93.833 220.303-110.151 310.056-20.398 89.753-57.116 236.622 155.028 297.817s305.976 61.195 444.685 61.195c110.151 0 310.056 8.159 412.048-36.717s155.028-85.673 155.028-248.861c0-163.187-4.080-208.064-12.239-289.657z" />
<glyph unicode="&#xe912;" glyph-name="paper-details" horiz-adv-x="796" d="M768-64h-739.556c-17.067 0-28.444 11.378-28.444 28.444v750.933c0 2.844 0 2.844 0 5.689v0c0 0 0 0 0 0s0 0 0 0v0c0 0 0 2.844 0 2.844v0c0 0 0 0 0 0s0 0 0 0 0 0 0 0 0 0 0 0c0 5.689 2.844 8.533 8.533 14.222 0 0 0 0 0 0s0 0 0 0 0 0 0 0 0 0 0 0 0 0 0 0 0 0 0 0 0 0 0 0 0 0 0 0 0 0 0 0l224.711 216.178c0 0 0 0 0 0s0 0 0 0 0 0 0 0 0 0 0 0 0 0 0 0c2.844 0 5.689 2.844 11.378 5.689 0 0 0 0 0 0s0 0 0 0v0c2.844 0 2.844 0 5.689 0 0 0 0 0 0 0s0 0 0 0 0 0 0 0 0 0 0 0 2.844 0 2.844 0h514.844c17.067 0 28.444-11.378 28.444-28.444v-967.111c0-17.067-11.378-28.444-28.444-28.444zM56.889-7.111h682.667v910.222h-457.956v-187.733c0-17.067-11.378-28.444-28.444-28.444h-196.267v-694.044zM99.556 743.822h125.156v119.467l-125.156-119.467zM614.4 243.2h-440.889c-17.067 0-28.444 11.378-28.444 28.444s11.378 28.444 28.444 28.444h440.889c17.067 0 28.444-11.378 28.444-28.444s-11.378-28.444-28.444-28.444zM614.4 393.956h-440.889c-17.067 0-28.444 11.378-28.444 28.444s11.378 28.444 28.444 28.444h440.889c17.067 0 28.444-11.378 28.444-28.444 0-14.222-11.378-28.444-28.444-28.444zM614.4 547.556h-440.889c-17.067 0-28.444 11.378-28.444 28.444s11.378 28.444 28.444 28.444h440.889c17.067 0 28.444-11.378 28.444-28.444s-11.378-28.444-28.444-28.444zM617.244 695.467h-219.022c-17.067 0-28.444 11.378-28.444 28.444s11.378 28.444 28.444 28.444h219.022c17.067 0 28.444-11.378 28.444-28.444s-14.222-28.444-28.444-28.444zM614.4 92.444h-440.889c-17.067 0-28.444 11.378-28.444 28.444s11.378 28.444 28.444 28.444h440.889c17.067 0 28.444-11.378 28.444-28.444s-11.378-28.444-28.444-28.444z" />
<glyph unicode="&#xe913;" glyph-name="setting" horiz-adv-x="982" d="M977.978 296.509c-23.011-72.869-61.363-141.903-111.221-195.596-7.67-7.67-19.176-11.506-30.682-3.835l-88.21 49.858c-38.352-30.682-80.539-57.528-126.562-72.869v-103.551c0-11.506-7.67-23.011-19.176-23.011-72.869-15.341-149.573-15.341-226.277 0-11.506 3.835-19.176 11.506-19.176 23.011v103.551c-46.022 15.341-88.21 42.187-122.727 72.869l-88.21-49.858c-7.67-3.835-23.011-3.835-30.682 3.835-49.858 53.693-92.045 122.727-111.221 195.596-3.835 11.506 0 23.011 11.506 26.846l88.21 49.858c-7.67 46.022-7.67 95.88 0 145.738l-88.21 49.858c-11.506 7.67-15.341 19.176-15.341 30.682 26.846 72.869 65.199 141.903 115.056 195.596 7.67 7.67 19.176 11.506 30.682 3.835l88.21-49.858c34.517 30.682 80.539 57.528 126.562 72.869v99.715c0 11.506 7.67 23.011 19.176 23.011 72.869 15.341 149.573 15.341 226.277 0 7.67 0 15.341-11.506 15.341-23.011v-99.715c46.022-15.341 88.21-42.187 126.562-72.869l88.21 49.858c7.67 3.835 23.011 3.835 30.682-3.835 49.858-53.693 92.045-122.727 111.221-195.596 3.835-11.506 0-23.011-11.506-26.846l-88.21-49.858c7.67-46.022 7.67-95.88 0-145.738l88.21-49.858c11.506-7.67 15.341-19.176 11.506-30.682zM655.82 449.918c0 92.045-72.869 164.914-164.914 164.914s-164.914-72.869-164.914-164.914c0-92.045 72.869-164.914 164.914-164.914s164.914 72.869 164.914 164.914z" />
<glyph unicode="&#xe914;" glyph-name="trash" horiz-adv-x="910" d="M910.222 865.185v-64.474c0-18.963-15.17-34.133-34.133-34.133h-841.956c-18.963 0-34.133 15.17-34.133 34.133v64.474c0 18.963 15.17 34.133 34.133 34.133h242.726l18.963 37.926c7.585 11.378 22.756 22.756 45.511 22.756h231.348c18.963 0 34.133-11.378 45.511-26.548l18.963-37.926h242.726c18.963 0 30.341-15.17 30.341-30.341zM64.474 702.104h781.274l-41.719-678.874c-3.793-49.304-45.511-87.23-98.607-87.23h-500.622c-53.096 0-94.815 37.926-98.607 91.022l-41.719 675.081z" />
<glyph unicode="&#xe915;" glyph-name="carret-down" horiz-adv-x="2223" d="M1108.862-64l-1108.862 939.138 73.547 84.862 1035.315-876.906 1040.972 876.906 73.547-84.862z" />
<glyph unicode="&#xe916;" glyph-name="carret-left" horiz-adv-x="563" d="M512-64l-512 512 512 512 51.2-51.2-460.8-460.8 460.8-460.8z" />
<glyph unicode="&#xe917;" glyph-name="close" d="M972.8-64l-460.8 460.8-460.8-460.8-51.2 51.2 460.8 460.8-460.8 460.8 51.2 51.2 460.8-460.8 460.8 460.8 51.2-51.2-460.8-460.8 460.8-460.8z" />
<glyph unicode="&#xe918;" glyph-name="seemax-power-ap" horiz-adv-x="925" d="M81.385 12.036h-78.71v46.233h78.71v-46.233zM517.731 58.269h-84.060v-46.233h84.060v46.233zM366.042 400.621h195.248v48.907h-146.34v157.421h130.293v48.907h-130.293v138.316h138.316v48.907h-189.899v-442.842h2.675zM726.734 400.621h195.248v48.907h-146.34v157.421h129.91v48.907h-129.91v138.316h138.316v48.907h-189.899v-442.842h2.675zM2.675 136.979h21.779v171.176l48.907-171.176h16.43l51.582 171.176v-171.176h21.779v198.304h-35.152l-46.233-157.421-43.94 157.421h-35.152v-198.304zM436.728 210.34l27.128 97.815 27.128-97.815h-54.257zM452.776 335.284l-59.606-198.304h21.779l13.373 51.582h67.63l13.373-51.582h24.454l-54.257 198.304h-26.746zM786.34 136.979h27.128l40.501 81.385 43.558-81.385h27.128l-54.257 103.164 51.582 92.466h-24.454l-35.152-73.361-43.558 76.036h-27.128l48.907-92.466-54.257-105.839zM238.806 12.036h10.699l13.373 54.257 13.373-54.257h10.699l16.43 62.663h-8.024l-13.373-51.582-13.373 51.582h-10.699l-13.373-51.582-11.463 51.582h-8.024l13.755-62.663zM311.785 12.036h35.152v5.349h-24.454v21.779h21.779v5.349h-21.779v19.104h24.454v5.349h-32.478v-56.931h-2.675zM921.982 960h-919.307v-46.233h919.307v46.233zM661.779 82.722c-5.349 10.699-13.373 16.43-24.454 16.43s-19.104-5.349-24.454-16.43l-68.012-146.722h37.827l51.582 108.513 2.675 2.675c0 0 2.675 0 2.675-2.675l32.478-73.361h-51.582l-16.43-35.152h124.561l-66.866 146.722zM921.982 60.943c0 10.699-2.675 19.104-10.699 24.454-8.024 8.024-16.43 10.699-24.454 10.699h-119.212v-35.152h116.537c2.675 0 2.675 0 2.675-2.675v-24.454h-119.212v-97.815h35.152v62.663h84.060c10.699 0 19.104 2.675 24.454 10.699 8.024 8.024 10.699 16.43 10.699 24.454v27.128zM127.618 66.293h5.349c8.024 0 13.373-2.675 13.373-10.699s-2.675-10.699-13.373-10.699h-5.349v21.397zM119.212 12.036h8.024v27.128h8.024c16.43 0 21.779 5.349 21.779 19.104 0 5.349-2.675 10.699-5.349 13.755-2.675 2.675-8.024 5.349-16.43 5.349h-16.43v-65.337zM192.573 17.385c-10.699 0-16.43 10.699-16.43 24.454 0 19.104 8.024 27.128 16.43 27.128 10.699 0 16.43-10.699 16.43-24.454-0.382-21.779-8.406-27.128-16.43-27.128zM192.573 74.699c-16.43 0-27.128-10.699-27.128-32.478 0-19.104 10.699-29.803 24.454-29.803 16.43 0 27.128 10.699 27.128 32.478 2.675 18.722-8.406 29.803-24.454 29.803zM187.224 832.382c-19.104 8.024-48.907 16.43-73.361 16.43-62.281 0-113.863-38.209-113.863-111.57 0-56.931 16.43-84.060 89.409-132.967 54.257-35.152 62.281-56.931 62.281-89.791 0-35.152-27.128-70.687-73.361-70.687-24.454 0-54.257 13.755-76.036 29.803v-56.931c21.779-10.699 51.582-19.104 84.060-19.104 78.71 0 116.537 54.257 116.537 124.943 0 51.582-21.779 89.791-84.060 127.618-54.257 35.152-64.955 54.257-64.955 84.060 0 35.152 24.454 65.337 62.281 65.337 24.454 0 48.907-8.024 67.63-19.104v51.964h3.439zM366.042 66.293h8.024c8.024 0 13.373-2.675 13.373-10.699 0-5.349-2.675-10.699-13.373-10.699h-8.024v21.397zM358.018 12.036h8.024v27.128h2.675c5.349 0 8.024-2.675 10.699-8.024l8.024-21.779h10.699l-8.024 27.128c-2.675 2.675-2.675 5.349-8.024 5.349 10.699 2.675 13.373 8.024 13.373 13.755 0 5.349-2.675 8.024-5.349 10.699s-8.024 5.349-13.373 5.349h-19.104v-59.606h0.382z" />
<glyph unicode="&#xe919;" glyph-name="presio-first" d="M0 682.693h43.886c34.345 0 62.966-12.084 62.966-50.882 0-37.525-29.257-50.882-59.786-50.882h-22.897v-67.419h-24.169v169.183zM24.169 602.554h24.169c14.629 0 33.709 7.632 33.709 29.893 0 20.989-22.261 29.257-36.889 29.257h-20.989v-59.15zM188.899 682.693h41.342c33.073 0 64.875-5.724 64.875-45.794 0-20.353-15.265-34.981-34.345-38.798v-0.636c7.632-3.18 10.812-6.36 16.537-17.173l31.801-66.783h-27.349l-25.441 58.514c-7.632 16.537-15.265 16.537-27.985 16.537h-14.629v-75.051h-24.169l-0.636 169.183zM212.432 610.186h20.353c22.897 0 36.253 10.176 36.253 26.713 0 15.265-11.448 24.805-33.709 24.805h-22.897v-51.518zM393.063 514.147h94.132v20.989h-69.963v55.334h63.602v21.625h-63.602v49.61h69.963v20.989h-94.132v-168.547zM660.194 679.513c-11.448 4.452-24.805 5.724-35.617 5.724-30.529 0-54.062-15.901-54.062-45.794 0-52.154 71.871-41.978 71.871-79.503 0-19.717-19.081-27.349-33.073-27.349-12.084 0-26.713 5.088-34.981 8.268l-1.908-22.897c10.812-3.816 22.897-6.996 34.345-6.996 33.709 0 61.694 13.993 61.694 50.246 0 55.334-72.507 48.338-72.507 80.139 0 17.809 15.901 22.261 29.257 22.261 12.72 0 19.081-1.908 31.801-6.996l3.18 22.897zM755.598 514.147h24.169v168.547h-24.169v-168.547zM943.225 685.873c50.882 0 80.775-37.525 80.775-87.135 0-51.518-29.893-87.135-80.775-87.135s-80.775 36.253-80.775 87.135c-0.636 49.61 29.257 87.135 80.775 87.135zM943.225 532.591c38.798 0 55.334 32.437 55.334 66.147 0 34.345-18.445 66.147-55.334 66.147s-55.334-31.801-55.334-66.147c0-33.709 16.537-66.147 55.334-66.147zM0 960v-225.789h52.154v173.635h919.056v-173.635h52.154v225.789h-1023.364zM971.846 168.149v-179.359h-919.692v179.359h-52.154v-232.149h1024v232.149h-52.154zM39.434 224.755v94.768h66.783v31.801h-66.783v59.15h69.327v31.801h-108.76v-216.884l39.434-0.636zM231.513 224.755h39.434v216.884h-39.434v-216.884zM519.632 224.755l-21.625 70.599c-3.18 10.812-10.812 22.897-28.621 22.897h-10.176v-93.496h-39.434v216.884h69.327c38.798 0 62.966-19.717 62.966-57.242 0-26.713-15.901-47.066-41.978-50.882v-1.272c11.448-1.272 18.445-10.176 24.169-25.441l27.985-82.683-42.614 0.636zM475.111 346.872c22.897 0 35.617 12.084 35.617 33.073 0 22.261-8.904 31.165-36.253 31.165h-15.265v-63.602h15.901zM671.006 231.116c10.812-6.36 27.349-9.54 48.974-9.54 45.158 0 72.507 24.169 72.507 63.602 0 25.441-5.724 40.706-31.801 55.97-31.801 19.081-51.518 24.169-51.518 45.794 0 15.901 10.812 25.441 29.893 25.441 13.357 0 22.897-1.908 40.706-9.54l1.908 33.073c-17.173 5.724-31.801 7.632-45.158 7.632-38.161 0-68.691-22.261-68.691-59.15 0-26.713 13.357-43.886 33.073-55.334 35.617-20.353 50.246-25.441 50.246-45.158s-12.72-31.801-33.073-31.801c-15.265 0-31.165 4.452-45.158 13.357l-1.908-34.345zM975.662 224.755v185.083h47.702v31.801h-136.109v-31.801h48.338v-185.083h40.070z" />
<glyph unicode="&#xe91a;" glyph-name="pure-blue" d="M51.892 152.562v755.546h919.524v-918.832h-919.524v163.286zM0 960v-1024h1024v1024h-1024zM853.103 431.395h-681.514v-29.751h681.514v29.751zM171.589 529.643v179.892h52.584c33.903 0 56.043-18.681 56.043-54.659 0-35.286-21.449-55.351-55.351-55.351h-20.065v-70.573h-33.211zM217.946 625.124c18.681 0 29.059 9.686 29.059 29.751s-9.686 29.751-29.059 29.751h-13.146v-58.811l13.146-0.692zM443.503 709.535h32.519v-116.238c0-40.13-22.141-63.654-60.195-63.654-38.746 0-60.195 24.216-60.195 63.654v116.238h32.519v-116.238c0-25.6 7.611-38.054 27.676-38.054s27.676 13.146 27.676 38.054v116.238zM644.843 529.643l-17.989 58.811c-2.768 8.995-8.995 18.681-24.216 18.681h-8.303v-77.492h-33.211v179.892h57.427c32.519 0 52.584-16.605 52.584-47.741 0-22.141-13.146-38.746-34.595-42.205v-0.692c9.686-1.384 15.914-8.303 20.065-20.757l23.524-68.497h-35.286zM607.481 631.351c18.681 0 29.751 10.378 29.751 26.984 0 18.681-7.611 25.6-30.443 25.6h-12.454v-53.276h13.146zM755.546 529.643v179.892h97.557v-26.292h-64.346v-47.741h58.119v-26.292h-58.119v-53.276h64.346v-26.292h-97.557zM171.589 186.465v119.697h32.519c26.984 0 42.205-9.686 42.205-30.443 0-13.146-6.227-24.216-24.908-28.368v-0.692c18.681-2.076 27.676-13.838 27.676-29.059 0-21.449-15.222-31.827-44.973-31.827l-32.519 0.692zM199.957 254.962c17.989 0 29.059 3.459 29.059 19.373 0 12.454-8.995 17.989-22.141 17.989h-17.297v-37.362h10.378zM202.032 200.303c18.681 0 29.059 5.535 29.059 19.373s-8.303 20.757-30.443 20.757h-11.762v-40.822h13.146zM276.757 186.465v119.697h17.297v-105.168h50.508v-15.222h-67.805zM438.659 306.162h16.605v-69.189c0-31.827-15.914-50.508-45.665-50.508s-45.665 18.681-45.665 50.508v69.189h16.605v-67.114c0-24.908 8.995-38.054 29.059-38.054 19.373 0 29.059 12.454 29.059 38.054v67.114zM487.784 186.465v119.697h67.114v-15.222h-49.816v-35.286h45.665v-15.222h-45.665v-39.438h49.816v-15.222h-67.114zM706.422 306.162h16.605v-69.189c0-31.827-15.914-50.508-45.665-50.508s-45.665 18.681-45.665 50.508v69.189h16.605v-67.114c0-24.908 8.995-38.054 29.059-38.054 19.373 0 29.059 12.454 29.059 38.054v67.114zM785.297 186.465l-44.973 119.697h19.373l37.362-105.168 38.054 105.168h17.989l-45.665-119.697h-22.141z" />
<glyph unicode="&#xe91b;" glyph-name="facebook" d="M1024 848.361v-804.571c0-61.594-50.045-111.639-111.639-111.639h-311.82v346.466h130.887l26.947 161.684h-157.835v107.789c0 46.195 23.098 88.541 92.391 88.541h73.143v146.286c0 0-65.444 11.549-127.038 11.549-130.887 0-215.579-80.842-215.579-219.429v-123.188h-142.436v-161.684h142.436v-346.466h-311.82c-61.594 0-111.639 50.045-111.639 111.639v793.023c0 61.594 50.045 111.639 111.639 111.639h804.571c57.744 0 107.789-50.045 107.789-111.639z" />
<glyph unicode="&#xe91c;" glyph-name="images" d="M855.040 110.080c0-51.2-35.84-92.16-87.040-92.16h-680.96c-46.080 0-87.040 40.96-87.040 92.16v491.52c0 51.2 35.84 92.16 87.040 92.16h30.72v-404.48c0-87.040 66.56-153.6 143.36-153.6h599.040l-5.12-25.6zM942.080 202.24h-686.080c-46.080 0-87.040 40.96-87.040 92.16v496.64c5.12 51.2 40.96 92.16 87.040 92.16h686.080c46.080 0 87.040-40.96 87.040-92.16v-496.64c0-51.2-40.96-92.16-87.040-92.16zM373.76 791.040c-46.080 0-87.040-40.96-87.040-92.16s35.84-92.16 87.040-92.16 87.040 40.96 87.040 92.16c-5.12 51.2-40.96 92.16-87.040 92.16zM286.72 325.12h629.76v215.040l-158.72 168.96c-10.24 10.24-20.48 10.24-30.72 0l-240.64-261.12-71.68 76.8c-10.24 10.24-20.48 10.24-30.72 0l-97.28-107.52v-92.16z" />
<glyph unicode="&#xe91d;" glyph-name="instagram" d="M1024 850.015v-804.030c0-60.681-49.304-109.985-109.985-109.985h-804.030c-60.681 0-109.985 49.304-109.985 109.985v804.030c0 60.681 49.304 109.985 109.985 109.985h804.030c60.681 0 109.985-49.304 109.985-109.985zM876.089 599.704c-3.793 56.889-15.17 109.985-60.681 151.704-41.719 41.719-94.815 56.889-151.704 60.681-60.681 3.793-242.726 3.793-303.407 0-56.889-3.793-109.985-15.17-151.704-60.681-45.511-41.719-56.889-94.815-60.681-151.704-3.793-60.681-3.793-242.726 0-303.407 3.793-56.889 15.17-109.985 60.681-151.704 41.719-41.719 94.815-56.889 151.704-60.681 60.681-3.793 242.726-3.793 303.407 0 56.889 3.793 109.985 15.17 151.704 60.681 41.719 41.719 56.889 94.815 60.681 151.704 0 60.681 0 242.726 0 303.407zM796.444 664.178c18.963-49.304 15.17-163.081 15.17-216.178s3.793-166.874-15.17-216.178c-11.378-30.341-37.926-56.889-68.267-68.267-49.304-18.963-163.081-15.17-216.178-15.17s-166.874-3.793-216.178 15.17c-30.341 11.378-56.889 37.926-68.267 72.059-18.963 49.304-15.17 163.081-15.17 216.178s-3.793 166.874 15.17 216.178c11.378 26.548 37.926 53.096 68.267 64.474 49.304 18.963 163.081 15.17 216.178 15.17s166.874 3.793 216.178-15.17c30.341-11.378 56.889-37.926 68.267-68.267zM512 262.163c102.4 0 185.837 83.437 185.837 185.837s-83.437 185.837-185.837 185.837-185.837-83.437-185.837-185.837 83.437-185.837 185.837-185.837zM633.363 448c0-68.267-53.096-121.363-121.363-121.363s-121.363 53.096-121.363 121.363 53.096 121.363 121.363 121.363 121.363-53.096 121.363-121.363zM705.422 599.704c22.756 0 41.719 18.963 41.719 41.719s-18.963 45.511-45.511 45.511c-22.756 0-45.511-18.963-45.511-45.511 3.793-22.756 26.548-41.719 49.304-41.719z" />
<glyph unicode="&#xe91e;" glyph-name="search" d="M1011.2 6.4l-57.6-57.6c-19.2-19.2-51.2-19.2-70.4 0l-198.4 198.4c-6.4 6.4-12.8 19.2-12.8 32v32c-70.4-51.2-160-83.2-256-83.2-230.4 0-416 185.6-416 416s185.6 416 416 416c230.4 0 416-185.6 416-416 0-96-32-185.6-89.6-256h32c12.8 0 25.6-6.4 32-12.8l198.4-198.4c25.6-19.2 25.6-51.2 6.4-70.4zM672 544c0 140.8-115.2 256-256 256s-256-115.2-256-256c0-140.8 115.2-256 256-256s256 115.2 256 256z" />
<glyph unicode="&#xe91f;" glyph-name="sign-right" d="M1005.929 403.827l-445.741-447.749c-26.102-26.102-66.259-26.102-92.361 0l-447.749 447.749c-26.102 26.102-26.102 66.259 0 92.361l447.749 445.741c26.102 24.094 66.259 24.094 92.361 0l447.749-447.749c22.086-26.102 22.086-64.251-2.008-90.353zM803.137 492.173l-168.659 154.604c-12.047 8.031-26.102 4.016-26.102-12.047v-108.424h-222.871c-34.133 0-66.259-26.102-66.259-66.259v-154.604c0-8.031 8.031-16.063 16.063-16.063h66.259c8.031 0 16.063 8.031 16.063 16.063v126.494h192.753v-108.424c0-16.063 16.063-24.094 26.102-12.047l168.659 154.604c4.016 10.039 4.016 22.086-2.008 26.102z" />
<glyph unicode="&#xe920;" glyph-name="target" d="M460.8 903.111l-5.689-62.578c-176.356-28.444-312.889-164.978-341.333-341.333h-56.889c-28.444 0-56.889-28.444-56.889-56.889s28.444-56.889 56.889-51.2h68.267c22.756-176.356 159.289-312.889 335.644-341.333v-56.889c0-28.444 28.444-56.889 56.889-56.889s56.889 28.444 56.889 56.889v56.889c170.667 28.444 307.2 164.978 335.644 341.333h56.889c28.444 0 56.889 28.444 56.889 56.889s-28.444 56.889-56.889 56.889h-56.889c-22.756 176.356-159.289 312.889-335.644 341.333v56.889c0 28.444-28.444 56.889-56.889 56.889s-56.889-28.444-56.889-56.889zM227.556 442.311c0 159.289 130.844 290.133 284.444 290.133 159.289 0 284.444-130.844 284.444-290.133s-130.844-290.133-284.444-290.133c-153.6 5.689-284.444 130.844-284.444 290.133zM512 271.644c-91.022 0-170.667 79.644-170.667 170.667s73.956 170.667 170.667 170.667c91.022 0 170.667-79.644 170.667-170.667s-73.956-170.667-170.667-170.667z" />
<glyph unicode="&#xe921;" glyph-name="website" d="M1024 448c0-280.652-227.556-512-512-512s-512 231.348-512 512c0 280.652 227.556 512 512 512 280.652 0 512-227.556 512-512zM709.215 288.711c0 18.963-7.585 34.133-18.963 45.511l-26.548 26.548c-11.378 11.378-30.341 18.963-45.511 18.963h-136.533c-18.963 11.378-45.511 64.474-64.474 64.474-22.756 0-41.719 3.793-64.474 15.17l-22.756 11.378c-7.585 3.793-15.17 11.378-15.17 22.756s7.585 18.963 15.17 22.756l64.474 22.756c3.793 0 7.585 0 11.378 0 7.585 0 15.17-3.793 22.756-7.585l18.963-15.17c3.793-3.793 7.585-3.793 11.378-3.793h11.378c11.378 0 18.963 11.378 15.17 22.756l-34.133 64.474c0 3.793 0 3.793 0 7.585s0 7.585 3.793 11.378l18.963 18.963c3.793 3.793 7.585 3.793 11.378 3.793h15.17c3.793 0 7.585 0 11.378 3.793l15.17 15.17c7.585 7.585 7.585 15.17 0 22.756l-7.585 7.585c-7.585 7.585-7.585 15.17 0 22.756l30.341 30.341c11.378 11.378 11.378 34.133 0 45.511l-56.889 56.889c-15.17 0-34.133-3.793-49.304-3.793v-22.756c0-26.548-26.548-41.719-49.304-30.341l-45.511 37.926c-94.815-41.719-170.667-117.57-212.385-212.385 18.963-30.341 53.096-75.852 72.059-106.193 11.378-15.17 22.756-30.341 37.926-41.719v0c18.963-18.963 41.719-34.133 64.474-45.511 30.341-15.17 72.059-37.926 102.4-53.096 22.756-11.378 34.133-34.133 34.133-56.889v-64.474c0-18.963 7.585-34.133 18.963-45.511 30.341-30.341 49.304-79.644 45.511-106.193v-56.889c30.341 0 60.681 3.793 87.23 7.585l34.133 98.607c3.793 11.378 7.585 22.756 11.378 34.133 3.793 7.585 7.585 15.17 11.378 22.756 7.585 7.585 15.17 15.17 22.756 22.756 18.963 15.17 30.341 37.926 30.341 64.474zM921.6 394.904c3.793 15.17 3.793 34.133 3.793 53.096 0 64.474-15.17 128.948-45.511 185.837l-26.548-15.17c-7.585-3.793-15.17-7.585-18.963-15.17l-41.719-60.681c-3.793-7.585-7.585-18.963-7.585-26.548 0-11.378 3.793-18.963 7.585-26.548l37.926-56.889c7.585-11.378 15.17-18.963 30.341-18.963l60.681-18.963z" />
<glyph unicode="&#xe922;" glyph-name="logout" horiz-adv-x="1366" d="M128 960h352c17.6 0 32-14.4 32-32v-21.333c0-17.6-14.4-32-32-32h-352c-23.467 0-42.667-19.2-42.667-42.667v-768c0-23.467 19.2-42.667 42.667-42.667h352c17.6 0 32-14.4 32-32v-21.333c0-17.6-14.4-32-32-32h-352c-70.667 0-128 57.333-128 128v768c0 70.667 57.333 128 128 128zM872 908l-18.933-18.933c-12.533-12.533-12.533-32.8 0-45.333l352-350.4h-746.4c-17.6 0-32-14.4-32-32v-26.667c0-17.6 14.4-32 32-32h746.4l-351.733-350.4c-12.533-12.533-12.533-32.8 0-45.333l18.933-18.933c12.533-12.533 32.8-12.533 45.333 0l438.667 437.333c12.533 12.533 12.533 32.8 0 45.333l-438.933 437.333c-12.533 12.533-32.8 12.533-45.333 0z" />
<glyph unicode="&#xe923;" glyph-name="eye-slash" horiz-adv-x="1280" d="M1268 18l-1196 935c-13.8 11-34 8.8-45-5 0 0 0 0 0 0l-20-25c-11-13.8-8.8-34 5-45 0 0 0 0 0 0l1196-935c13.8-11 34-8.8 45 5l20 25c11 13.8 8.8 34-5 45 0 0 0 0 0 0zM593.6 667l269.6-210.8c-4.4 120-102.2 215.8-223.2 215.8-15.6 0-31.2-1.6-46.4-5zM686.4 229l-269.6 210.6c4.6-119.8 102.2-215.6 223.2-215.6 15.6 0 31.2 1.6 46.4 5v0zM640 736c197.2 0 378.2-110 475.8-288-24-43.8-53.6-84.2-88-120.4l75.4-59c42 45 77.6 95.6 105.8 150.2 9.2 18.4 9.2 40 0 58.4-108.4 211.6-323.2 354.8-569 354.8-73.4 0-143.4-14-209.2-37.6l92.8-72.6c37.8 8.6 76.6 14.2 116.4 14.2zM640 160c-197.2 0-378.2 110-475.8 288 24 43.8 53.6 84.2 88.2 120.4l-75.4 59c-42-45-77.6-95.4-105.8-150.2-9.2-18.4-9.2-40 0-58.4 108.2-211.6 323-354.8 568.8-354.8 73.4 0 143.4 14 209.2 37.6l-92.8 72.6c-37.8-8.6-76.6-14.2-116.4-14.2z" />
<glyph unicode="&#xe924;" glyph-name="eye" horiz-adv-x="1536" d="M768 746.667c-28.267-0.533-56.267-4.8-83.2-13.333 12.533-21.867 19.2-46.667 19.2-72 0-82.4-66.933-149.333-149.333-149.333-25.333 0.267-50.133 6.933-72 19.2-45.6-157.867 45.6-323.2 203.733-368.533 158.133-45.6 323.2 45.6 368.8 203.733s-45.6 323.2-203.733 368.8c-27.2 7.733-55.2 11.467-83.467 11.467zM1526.667 486.933c-144.533 282.133-430.933 473.067-758.667 473.067s-614.133-190.933-758.667-473.067c-12.267-24.533-12.267-53.333 0-77.867 144.533-282.133 430.933-473.067 758.667-473.067s614.133 190.933 758.667 473.067c12.533 24.533 12.533 53.333 0 77.867zM768 64c-262.933 0-504.267 146.667-634.4 384 130.133 237.333 371.2 384 634.4 384s504.267-146.667 634.4-384c-130.133-237.333-371.2-384-634.4-384z" />
<glyph unicode="&#xe925;" glyph-name="plus-circle" d="M1024 449.161c0-283.283-229.878-510.839-510.839-510.839s-513.161 227.556-513.161 510.839 229.878 510.839 510.839 510.839 513.161-229.878 513.161-510.839zM808.054 504.889c0 13.932-11.61 25.542-25.542 25.542h-190.404v190.404c0 13.932-11.61 25.542-25.542 25.542h-116.1c-13.932 0-25.542-11.61-25.542-25.542v-190.404h-190.404c-13.932 0-25.542-11.61-25.542-25.542v-116.1c0-13.932 11.61-25.542 25.542-25.542h190.404v-190.404c0-13.932 11.61-25.542 25.542-25.542h116.1c13.932 0 25.542 11.61 25.542 25.542v190.404h190.404c13.932 0 25.542 11.61 25.542 25.542v116.1z" />
<glyph unicode="&#xe926;" glyph-name="store" horiz-adv-x="1281" d="M1216.866 575.334h-1152.932c-51.147 0-82.048 57.54-53.278 99.097l170.489 255.734c12.787 19.18 31.967 29.836 53.278 29.836h810.889c21.311 0 41.557-10.656 53.278-28.77l170.489-255.734c28.77-42.622-2.131-100.162-52.212-100.162zM640.4 511.401h127.867v-512.533c0-35.163-28.77-63.933-63.933-63.933h-512.533c-35.163 0-63.933 28.77-63.933 63.933v512.533h127.867v-319.667h384.666v319.667zM1024 511.401h127.867v-544.499c0-18.114-14.918-31.967-31.967-31.967h-63.933c-18.114 0-31.967 14.918-31.967 31.967v544.499z" />
<glyph unicode="&#xe927;" glyph-name="myopsee" horiz-adv-x="1045" d="M834.422 83.373h183.351v32.519h-145.989v153.6h132.843v32.519h-132.843v138.378h139.762v32.519h-176.432l-0.692-389.535zM587.416 83.373h183.351v32.519h-146.681v153.6h132.843v32.519h-132.843v138.378h139.762v32.519h-176.432v-389.535zM336.951 97.903c21.449-13.146 53.276-18.681 78.876-18.681 63.654 0 111.395 42.205 111.395 107.243 0 53.276-22.832 71.265-96.865 121.773-35.978 25.6-56.735 40.13-56.735 78.876 0 44.973 42.897 56.735 67.114 56.735 31.135 0 50.508-10.378 66.422-18.681l1.384 38.746c-9.686 3.459-32.519 12.454-65.73 12.454-24.908 0-108.627-7.611-108.627-94.097 0-44.281 17.297-68.497 75.416-105.168 50.508-31.135 78.876-49.816 78.876-94.789 0-14.53-8.303-69.881-75.416-69.881-10.378 0-44.973 2.076-73.341 26.292l-2.768-40.822zM947.892 734.443c-27.676 0-35.286-34.595-35.286-52.584 0-5.535 1.384-53.276 34.595-53.276 31.135 0 33.211 44.281 33.211 53.276s-1.384 52.584-32.519 52.584zM1044.757 681.859c0-66.422-31.827-106.551-85.103-106.551-14.53 0-30.443 2.076-47.049 15.914v-87.87h-62.27v279.524h59.503v-13.838c13.146 11.762 29.751 17.989 50.508 17.989 53.276 0 84.411-39.438 84.411-105.168zM767.308 686.011c0 22.141-10.378 48.432-38.746 48.432-26.292 0-38.746-24.216-38.746-48.432 0-26.292 6.919-57.427 38.746-57.427 32.519-0.692 38.746 31.135 38.746 57.427zM831.654 679.784c0-61.578-42.205-104.476-103.092-104.476s-103.092 42.897-103.092 104.476c0 62.962 42.205 106.551 103.092 106.551 60.886 0.692 103.092-43.589 103.092-106.551zM566.659 782.876l-39.438-121.773-39.438 121.773h-68.497l73.341-206.184c0.692-15.914-8.303-24.908-22.832-24.908-10.378 0-16.605 0.692-22.141 2.768l-8.995 3.459-4.151-51.892 5.535-1.384c11.762-3.459 24.216-5.535 35.978-5.535 51.2 0 65.73 40.13 79.568 78.876l75.416 204.8h-64.346zM204.108 677.708h-1.384l-86.486 282.292h-116.238v-372.93h69.881v306.508l1.384 1.384 97.557-307.892h69.881l97.557 307.892h1.384v-307.892h69.881v372.93h-116.93l-86.486-282.292zM489.168 907.416h476.714v-74.724h51.892v127.308h-528.605v-52.584zM1017.773 40.476v-104.476h-1017.773v592.259h51.892v-540.368h913.297v51.892h52.584z" />
</font>
</defs>
</svg>
